<svg xmlns="http://www.w3.org/2000/svg" width="607" height="154" viewBox="0 0 607 154" fill="none"><g clip-path="url(#clip0_884_7689)"><path d="M198.893 133.307C198.882 133.237 198.901 133.17 198.949 133.115C198.997 133.059 199.056 133.026 199.13 133.022C199.204 133.018 199.271 133.041 199.338 133.092C199.404 133.144 199.438 133.207 199.445 133.278C199.452 133.348 199.434 133.415 199.389 133.47C199.345 133.526 199.286 133.555 199.212 133.559C199.141 133.563 199.071 133.541 199.008 133.489C198.945 133.437 198.908 133.374 198.897 133.304L198.893 133.307ZM200.497 132.074L199.608 133.067L199.297 132.811L200.1 131.745L200.497 132.07V132.074Z" fill="#1D1D1B"></path><path d="M27.2526 82.4479C29.267 78.6932 30.5667 74.8459 31.2184 70.7801C31.2777 70.4172 31.1148 69.9988 30.9926 69.6285C30.7445 68.8731 30.4556 68.1325 30.1039 67.1661C28.7338 66.1293 26.4195 65.5812 26.4824 62.9485C25.8863 62.7411 25.3049 62.5708 24.7532 62.3338C23.3757 61.745 22.6203 60.7193 22.5277 59.19C22.4981 58.6901 22.4463 58.0384 22.1352 57.7348C20.8874 56.5091 20.854 55.0946 21.2725 53.5727C21.4354 52.9803 21.702 52.4619 21.1614 51.8768C19.8691 50.4734 19.8505 48.7812 20.3319 47.0778C20.5615 46.2595 20.4578 45.556 20.3171 44.7376C20.1431 43.723 20.3986 42.6196 20.5541 41.5679C20.6207 41.1162 21.0873 40.6866 21.0577 40.2682C20.9429 38.6501 20.991 37.1393 22.3833 35.9803C22.5759 35.8173 22.5166 35.3471 22.5574 35.0138C22.7388 33.5845 22.9462 32.1996 24.1126 31.1258C24.4495 30.8147 24.4644 30.1408 24.5903 29.6261C24.9828 28.0524 25.6604 26.7156 27.2156 25.938C27.6451 25.7232 27.9414 25.2011 28.2524 24.7827C29.1374 23.5867 30.2112 22.6572 31.7517 22.5499C32.5885 22.4906 33.0921 22.1018 33.5994 21.4871C34.851 19.9689 36.4173 19.221 38.4687 19.5764C38.9797 19.6653 39.6351 19.3802 40.1202 19.0914C41.0126 18.5581 41.8717 18.1101 42.9714 18.1582C43.4491 18.1804 43.986 17.8842 44.4267 17.6213C47.3631 15.8846 50.3772 14.3516 53.658 13.3371C57.1054 12.2706 60.6343 12.1966 64.1779 12.2484C69.8693 12.3336 75.4236 13.2334 80.6595 15.3144C82.3629 14.1184 83.9144 12.9038 85.5844 11.8744C91.3905 8.2937 97.5225 7.82714 103.766 10.4932C106.443 11.6374 109.013 13.1149 111.453 14.7145C115.73 17.5176 118.325 21.5797 119.77 26.4675C122.217 34.762 123.632 43.1787 123.095 51.8509C122.932 54.4948 123.239 56.9424 124.639 59.2974C125.257 60.3379 125.257 61.7598 125.494 63.0151C125.705 64.1371 125.653 65.359 126.079 66.3848C127.301 69.336 128.701 72.2094 130.034 75.1125C130.271 75.6309 130.523 76.1456 130.8 76.7232C128.69 77.0491 126.12 79.4078 125.85 81.2075C125.765 81.7629 126.016 82.3961 126.205 82.9626C127.29 86.1693 126.861 86.8062 123.432 86.9432C121.506 87.021 119.573 86.9321 117.848 86.0064C113.808 83.8328 109.949 84.8733 106.006 86.4545C106.998 87.8949 107.92 89.2835 108.909 90.6202C109.176 90.9831 109.62 91.2386 110.02 91.4793C113.052 93.3085 116.085 95.134 119.133 96.9374C119.91 97.4002 120.269 97.9594 120.603 98.8962C121.936 102.662 122.45 106.561 123.035 110.464C123.132 111.097 123.428 111.786 123.846 112.26C124.72 113.252 124.902 114.326 124.446 115.481C124.135 116.27 124.32 116.907 124.606 117.629C125.228 119.21 125.761 120.828 126.353 122.424C126.661 123.254 126.372 123.732 125.55 123.95C125.091 124.072 124.628 124.183 124.176 124.32C121.143 125.253 118.696 126.938 116.974 129.675C115.911 131.363 114.423 132.481 112.26 132.419C109.816 132.352 107.365 132.433 104.928 132.293C103.621 132.215 102.403 132.182 101.137 132.667C98.9148 133.518 96.6412 134.24 94.364 134.944C93.5975 135.181 92.7347 135.392 91.9608 135.288C89.7427 134.988 87.5432 134.888 85.303 134.94C82.7183 134.999 80.13 134.725 77.538 134.644C72.0392 134.477 66.5367 134.388 61.0379 134.189C46.8669 133.67 32.6959 133.111 18.5249 132.559C13.0076 132.344 7.49027 132.1 1.97295 131.859C0.20667 131.782 -0.196946 131.348 0.0918803 129.597C1.08796 123.557 2.09145 117.522 3.16899 111.497C3.63185 108.913 4.72791 106.643 6.67193 104.732C10.5118 100.962 14.2258 97.0633 17.9769 93.2011C18.3435 92.8234 18.6656 92.3717 18.8915 91.8977C20.0949 89.3797 21.2206 86.8247 22.45 84.3253C23.5757 82.0369 23.7423 81.9999 26.264 82.3665C26.5269 82.4035 26.7972 82.4109 27.26 82.4479H27.2526ZM95.0675 66.2848C94.5417 66.7032 94.0122 67.1179 93.3938 67.6104C95.5007 67.7882 96.1599 67.2401 96.2561 65.2591C95.9525 65.4961 95.7118 65.6812 95.4711 65.8663C95.8525 64.9554 95.2193 64.5333 94.6454 64.026C91.5979 61.334 89.9242 58.0866 90.6129 53.8986C90.8647 52.3545 91.0165 50.7919 91.3276 49.2626C92.594 43.0454 91.746 37.0837 89.3317 31.2776C88.8281 30.0667 88.1468 29.5409 86.736 29.5594C83.6737 29.5928 80.6077 29.3558 77.5454 29.2743C75.7939 29.2262 74.0387 29.2669 72.2206 29.2669C72.191 31.2702 73.6648 33.3475 71.4504 34.7657C71.917 35.958 72.365 37.0171 72.7538 38.0983C74.9645 44.234 75.1904 50.4808 73.6685 56.7943C73.0464 59.3789 73.25 61.7672 74.7756 64.0112C75.5273 65.1184 76.479 65.8923 77.6454 66.5403C79.4968 67.566 79.7782 69.2804 78.5267 71.0097C77.7565 72.0761 76.6863 72.6019 75.4088 72.7278C74.9682 72.7723 74.5201 72.7352 73.861 72.7352C74.0128 73.5832 74.1276 74.209 74.2387 74.8311C76.5752 74.4571 77.0751 74.9088 77.1418 77.0454C77.1825 78.3414 76.7308 79.2745 75.6051 79.9225C75.0348 80.2521 74.5164 80.6705 73.9647 81.0556C76.3716 83.7662 76.4234 84.0994 74.746 86.0916C74.1721 85.8398 73.5685 85.5732 72.8316 85.2473C72.6168 86.0731 72.4243 86.8284 72.1577 87.8579C73.6499 88.0985 74.9645 88.3614 76.2901 88.517C79.4672 88.891 82.6739 89.0835 85.614 90.5425C85.7955 90.6313 86.0028 90.6684 86.2028 90.7128C87.3655 90.9646 87.8728 90.7646 88.2208 89.6167C89.0133 87.0284 89.7094 84.4105 90.4463 81.7999C88.8133 80.4076 87.1877 79.6633 85.1104 80.0225C83.8699 80.2373 82.5887 80.178 81.2705 79.7152C81.4519 79.156 81.5593 78.7709 81.7075 78.4007C81.7445 78.3118 81.9111 78.2748 82.1629 78.134C82.3703 79.2523 83.1405 79.2227 83.9884 78.9894C87.8135 77.9415 90.9906 76.0308 92.9013 72.376C92.3829 71.654 91.8756 70.9541 91.4276 70.3283C90.4833 70.5468 89.5132 71.0652 88.7059 70.8801C87.8469 70.6801 87.147 69.8136 86.3657 69.2286C86.1509 69.4137 85.8436 69.6803 85.5362 69.9469C85.4252 69.8544 85.3104 69.7655 85.1993 69.6729C85.9917 68.3621 86.7693 67.0439 87.5988 65.7553C87.695 65.6071 88.0764 65.6479 88.5763 65.5516C88.5578 66.9846 87.4025 68.4732 89.0651 69.6877C90.0612 69.099 91.1165 68.4732 92.2644 67.7919C91.8386 67.6623 91.5423 67.5697 91.3054 67.4993C92.5384 67.0994 93.7974 66.6921 95.0601 66.2848H95.0675ZM72.5909 71.0615C72.9427 70.8949 73.2982 70.5801 73.6462 70.5912C75.6495 70.6468 76.7345 69.5841 77.2418 68.1621C75.9569 66.8328 74.7053 65.7775 73.7536 64.5037C71.9651 62.1116 71.7948 59.3937 72.4576 56.5202C73.824 50.5845 73.9832 44.6599 72.0281 38.7834C70.6358 34.6028 71.1135 35.0805 66.9921 35.0508C60.4491 35.0064 53.9061 35.1545 47.3594 35.2286C47.1076 35.2286 46.8595 35.3211 46.441 35.4063C46.5744 38.6686 46.5892 41.8642 46.878 45.0338C47.0631 47.0593 46.7114 48.8219 45.4191 50.3512C43.1121 53.0802 42.1494 56.0611 43.501 59.5381C43.5232 59.601 43.5232 59.6714 43.5306 59.7418C43.7639 61.7895 43.1529 62.3338 40.9126 62.0042C40.2646 60.0787 39.8573 57.9644 38.017 56.5647C35.7915 57.82 35.1879 59.9565 34.514 62.1227C33.9512 63.9334 34.6325 65.3072 35.6249 66.6625C36.2285 67.4882 36.7913 68.3473 37.4726 69.1027C38.839 70.6209 39.5055 70.4987 40.509 68.6843C40.8423 68.0844 40.8756 67.1994 41.9235 67.1179C42.2346 68.8731 41.4495 70.1913 40.1535 70.9912C38.1021 72.2613 37.0431 70.158 35.4508 69.1101C34.7547 69.8988 34.1511 70.7468 33.3883 71.4096C32.196 72.4427 31.6591 73.7165 31.2295 75.2051C30.5556 77.549 29.5781 79.8078 28.7116 82.0998C28.5042 82.6516 28.2339 83.1774 28.0191 83.6514C34.3548 88.4059 40.5571 93.0604 46.841 97.7742C47.9037 95.1044 48.9738 92.4124 49.9588 89.9315C48.8813 88.5096 47.8296 87.2654 46.9521 85.9101C46.3818 85.0288 45.7819 84.3216 44.8155 83.8328C43.8898 83.3625 42.8566 82.8886 42.3271 81.4629C43.2899 81.7481 44.0157 81.9591 44.9451 82.2369C44.2971 80.552 43.7046 79.0264 43.1158 77.4971C43.2492 77.4342 43.3825 77.375 43.5158 77.312C43.7713 77.6601 44.0823 77.9785 44.2749 78.3599C45.0414 79.8781 45.8227 81.3926 46.5003 82.9515C48.2925 87.0691 51.3622 89.5834 55.7575 90.4869C55.9575 90.5276 56.1575 90.5758 56.3574 90.6091C59.7826 91.1497 63.2078 91.6978 66.6367 92.2199C67.6253 92.3717 68.6214 92.4606 69.6804 92.5865C70.2618 90.5869 70.8987 88.7873 71.2949 86.9358C71.817 84.4845 70.21 82.8849 67.7734 83.2033C66.9736 83.307 66.1331 83.3736 65.3443 83.2514C64.2446 83.0811 64.1039 82.5849 64.626 80.9668C65.2777 81.5111 65.7998 82.3924 66.8292 81.7814C69.4731 80.2188 72.0614 78.608 73.8832 76.116C73.55 75.1421 73.2574 74.2867 73.0056 73.5425C72.3132 73.7572 71.7133 74.146 71.1912 74.0646C69.8286 73.8498 69.9026 72.3427 69.2768 71.4651C68.9028 71.7021 68.6214 71.8799 68.3363 72.0613C68.8251 70.6505 69.3324 69.3582 71.0801 68.7916C70.8765 69.5507 70.6432 70.0506 70.6395 70.5505C70.6395 70.9356 70.932 71.3207 71.0986 71.7021C71.1135 72.0576 71.132 72.4131 71.1653 73.1277C72.3613 71.5651 73.6351 71.1578 75.2718 71.2874C76.7937 71.4096 77.5084 70.5283 77.7639 68.5546C76.6715 70.5727 75.0867 71.0948 73.1945 70.9615C72.9945 70.9467 72.7909 71.0134 72.5909 71.043V71.0615ZM49.2849 103.806C48.1666 105.928 47.6408 106.009 45.8375 104.725C44.6822 103.899 43.4676 103.099 42.1716 102.532C35.4434 99.5812 28.682 96.7041 21.9279 93.8084C20.1134 93.0308 19.4877 93.1086 18.1509 94.5416C15.0331 97.8742 12.0226 101.31 8.85294 104.591C6.69785 106.824 5.29075 109.364 4.73902 112.401C4.61682 113.071 4.41316 113.723 4.30207 114.393C3.50595 119.155 2.72094 123.917 1.94703 128.682C1.89519 128.993 1.93963 129.323 1.93963 129.775C23.983 130.626 45.8856 131.471 68.0141 132.326C67.7771 131.448 67.6698 130.782 67.4217 130.171C65.5147 125.516 63.5818 120.869 61.66 116.222C59.2679 110.434 54.7133 106.794 49.2849 103.806ZM95.5859 59.5825C94.8379 60.0047 94.1603 60.3898 93.1605 60.9563C94.4158 62.0264 95.3822 62.9707 96.4672 63.7446C97.8447 64.7259 98.1742 65.733 97.3078 67.1587C96.5598 68.3843 95.5378 69.2064 94.0048 69.2175C93.4864 69.2175 92.968 69.3286 92.4384 69.3878C92.4496 70.2617 92.5162 70.9763 93.4827 70.9245C94.6898 70.8616 95.0601 71.6429 95.1231 72.5723C95.2045 73.7609 95.1119 74.9644 95.1008 75.7605C93.6271 76.6122 92.5347 77.2416 91.3757 77.9082C94.5269 80.6113 98.2964 81.6555 101.836 83.1552C102.562 83.4625 103.262 83.4551 103.895 82.8145C107.057 79.6226 110.327 76.5344 113.397 73.2573C115.715 70.7801 116.478 67.7252 115.863 64.3482C115.345 61.508 115.415 58.6568 115.815 55.8056C115.9 55.202 115.948 54.591 115.956 53.98C115.974 52.2841 115.867 50.5808 115.978 48.8923C116.241 44.8487 115.474 41.0014 113.652 37.4281C112.738 35.6359 111.608 33.8289 110.168 32.4551C108.213 30.5888 105.936 29.0299 103.662 27.5451C102.436 26.7452 101.655 25.8454 101.274 24.4531C100.94 23.2423 100.429 22.0759 99.9961 20.891C99.8739 20.9354 99.748 20.9835 99.6258 21.028C100.052 22.5165 100.54 23.994 100.885 25.5011C101.214 26.9526 101.025 27.3636 99.6517 27.8339C96.0488 29.0707 93.4086 31.359 91.6645 34.9583C93.6197 40.5015 93.4049 46.2669 92.1015 52.0953C91.7497 53.6653 91.8423 55.3427 91.8312 56.972C91.8238 58.1421 92.2089 59.2197 93.0642 60.112C93.8159 59.701 94.4936 59.2604 95.2267 58.9493C95.971 58.6346 96.7597 58.3754 97.5559 58.231C100.333 57.7237 101.759 59.0567 101.585 62.0005C99.8887 62.3708 98.2816 63.4002 96.208 62.9374C96.5746 62.5078 96.7708 62.2745 96.7968 62.2449C96.3931 61.3488 96.0488 60.586 95.5896 59.5677L95.5859 59.5825ZM82.4221 91.0572C81.6445 90.498 81.0076 90.461 80.2707 90.9683C75.8421 94.0232 71.3875 97.041 66.9588 100.096C66.4404 100.451 66.0479 100.988 65.5739 101.466C68.5362 103.499 71.2986 105.347 73.998 107.28C74.746 107.816 75.3977 108.542 75.9457 109.29C76.9085 110.594 77.7565 111.979 78.6526 113.326C78.797 113.249 78.9414 113.175 79.0858 113.097C78.2971 110.323 77.5084 107.55 76.7196 104.78C76.7826 104.739 76.8418 104.702 76.9048 104.662C77.4602 105.598 78.0157 106.535 78.5748 107.472C78.634 107.439 78.6933 107.405 78.7525 107.372C78.6637 106.732 78.5748 106.095 78.4822 105.454C78.6303 105.439 78.7748 105.421 78.9229 105.406C79.0451 106.839 79.1043 108.283 79.3006 109.705C79.6042 111.912 79.6597 114.23 80.4262 116.278C82.3332 121.369 84.5698 126.338 86.7175 131.337C86.9322 131.837 87.3877 132.411 87.8691 132.593C92.32 134.285 93.1827 134.233 97.5966 132.282C98.1557 132.033 98.6889 131.708 99.2629 131.515C101.414 130.8 102.499 129.397 102.296 127.075C102.259 126.675 102.429 126.261 102.403 125.857C102.247 123.487 102.37 121.047 101.814 118.773C100.966 115.282 99.5591 111.927 98.5519 108.464C97.7854 105.832 96.3524 103.636 94.5713 101.651C93.0383 99.9404 91.2905 98.4592 89.0577 97.5483C87.9209 98.9962 87.5062 100.581 87.1803 102.17C86.8471 103.795 86.6656 105.45 86.4027 107.172C84.6401 105.547 83.2293 99.7293 82.4147 91.0572H82.4221ZM64.0113 105.465C58.9235 102.166 54.0875 99.1665 48.5887 97.2854C48.2221 98.1963 47.5704 99.0924 48.5776 99.8923C49.5478 100.666 49.8885 101.559 49.4034 102.718C50.7031 103.584 51.8473 104.447 53.0841 105.15C57.4646 107.635 60.5084 111.312 62.4968 115.852C64.6223 120.706 66.5848 125.635 68.614 130.534C68.8399 131.078 69.025 131.637 69.2213 132.159C74.7238 132.378 80.0634 132.589 85.5511 132.807C85.3992 132.111 85.3585 131.7 85.2215 131.326C82.5961 124.098 80.0411 116.837 75.6976 110.39C75.3237 109.835 74.9534 109.224 74.435 108.835C71.9836 106.998 69.4916 105.217 66.9958 103.443C66.5774 103.147 66.0701 102.973 65.6628 102.777C65.1037 103.688 64.626 104.473 64.015 105.469L64.0113 105.465ZM104.599 130.115C107.05 130.808 109.705 130.745 112.349 130.597C114.193 130.493 116.729 128.149 116.992 126.498C117.185 125.302 117.477 124.12 117.581 122.921C117.737 121.099 117.97 119.247 117.8 117.444C117.444 113.73 116.204 110.131 116.289 106.35C116.344 103.973 116.43 101.596 116.548 99.222C116.563 98.9332 116.878 98.6629 117.222 98.1112C117.422 100.148 116.855 101.873 117.514 103.943C118.244 101.925 118.833 100.3 119.451 98.5926C116.311 96.7929 113.734 94.4712 110.275 92.8679C111.068 94.7045 111.779 96.156 112.316 97.6668C112.838 99.1406 113.638 100.618 112.964 102.518C112.379 102.158 111.916 101.929 111.512 101.618C110.109 100.533 108.716 99.4368 107.346 98.3148C106.587 97.6965 105.891 97.6557 105.18 98.363C104.843 98.6999 104.458 98.9925 104.151 99.3554C102.533 101.273 100.929 103.21 99.2703 105.199C100.544 108.727 101.84 112.23 103.073 115.759C103.521 117.037 104.051 118.344 104.154 119.669C104.417 123.058 104.458 126.464 104.595 130.115H104.599ZM47.4742 104.043C47.7371 103.203 48 102.632 48.0777 102.036C48.1333 101.614 48.0888 101.014 47.8296 100.744C46.5262 99.385 45.2376 97.9779 43.7639 96.8226C38.1503 92.4272 32.7588 87.7357 26.6602 83.9809C25.1161 83.033 24.6532 82.9885 23.8386 84.5438C22.798 86.5322 21.8316 88.5614 20.8725 90.5869C20.1801 92.0495 20.2468 92.1828 21.7872 92.7975C25.9529 94.4638 30.1224 96.1153 34.2918 97.7742C38.7575 99.5516 43.3565 101.051 47.4742 104.04V104.043ZM98.8963 100.263C101.044 94.8045 103.277 89.9241 103.962 84.5438C100.544 84.6289 97.8002 82.5664 94.7305 81.7259C94.1714 82.3887 93.6678 82.9922 93.1272 83.6366C92.4273 83.2107 91.8645 82.8701 91.1498 82.4368C90.5241 85.1584 89.9242 87.7616 89.3169 90.4017C93.3827 92.7864 96.308 96.045 98.9 100.266L98.8963 100.263ZM63.6521 103.78C65.1592 101.181 65.1814 101.051 63.3818 99.2369C61.1749 97.0077 58.8717 94.8785 56.7018 92.6198C55.191 91.046 53.2099 90.6572 51.0401 89.9241C50.2587 92.094 49.5145 94.1602 48.8072 96.119C53.8876 98.7407 58.7013 101.229 63.6521 103.784V103.78ZM120.132 100.681C119.951 100.681 119.77 100.681 119.588 100.685C117.888 104.436 116.818 108.265 118.159 112.427C119.321 116.048 119.725 119.736 118.936 123.502C118.877 123.791 118.97 124.117 118.999 124.565C120.862 123.894 122.573 123.276 124.469 122.595C124.172 121.495 123.902 120.458 123.613 119.425C123.154 117.788 122.613 116.17 123.05 114.419C123.139 114.067 123.08 113.5 122.85 113.275C121.499 111.93 121.639 110.164 121.38 108.509C120.973 105.898 120.551 103.288 120.136 100.681H120.132ZM97.9558 103.362C98.7482 102.551 98.3483 101.592 97.841 100.722C97.1226 99.4924 96.245 98.3519 95.5119 97.1299C93.9307 94.4934 91.4461 92.8494 89.0725 90.9202C87.1322 93.2011 85.1252 91.42 83.0775 91.1534C83.496 95.4044 84.3698 99.3887 85.6288 103.325C85.9139 102.821 86.0324 102.303 86.2028 101.807C86.6841 100.4 87.0767 98.9443 87.721 97.6113C88.306 96.4004 89.0355 96.2227 90.2574 96.7966C91.1721 97.2299 92.1089 97.7224 92.8532 98.3926C94.6083 99.9774 96.2561 101.684 97.9595 103.358L97.9558 103.362ZM111.697 100.085C110.99 95.8598 106.961 88.5429 104.884 87.3395C104.021 89.7389 103.147 92.1458 102.296 94.5638C101.444 96.9818 100.614 99.4109 99.7739 101.836C101.303 100.574 102.51 99.1887 103.829 97.9186C105.836 95.9931 106.38 95.9968 108.542 97.6335C109.513 98.3667 110.464 99.1221 111.697 100.081V100.085ZM65.1296 93.0752C64.7778 94.3861 64.4371 95.6117 64.1187 96.8448C63.8039 98.063 64.1446 98.9517 65.3592 99.3442C69.8323 96.4041 74.2313 93.5122 79.0266 90.361C76.3345 89.9648 74.1609 89.6464 71.7948 89.2983C71.3616 90.8239 70.9431 92.2902 70.5321 93.7269C68.6732 93.5011 67.0069 93.2974 65.1296 93.0715V93.0752ZM64.1076 92.9716C61.8266 92.6124 59.6419 92.2717 57.0165 91.857C59.1272 93.7714 60.8824 95.3636 62.7301 97.0373C63.2226 95.5821 63.6336 94.3787 64.1113 92.9716H64.1076ZM69.5953 81.1593C69.6471 81.2778 69.699 81.4 69.7545 81.5185C71.4689 80.6002 73.2315 79.7596 74.8867 78.7413C76.0568 78.023 76.0902 77.3046 75.32 75.7494C73.3981 77.5638 71.4986 79.3634 69.5953 81.1593ZM89.465 77.8934C90.7055 77.2379 91.6719 76.7825 92.5866 76.2382C94.4306 75.1421 94.6269 74.4163 93.827 72.5649C92.4977 74.1868 91.1091 75.8864 89.465 77.8934ZM89.0577 79.2153C90.387 80.2373 91.6868 81.2334 93.0494 82.2813C93.2346 81.9628 93.5308 81.6592 93.4679 81.5222C93.1975 80.9297 92.8939 80.3188 92.4681 79.8337C91.5905 78.8376 90.2611 78.6228 89.0577 79.2153ZM74.4905 84.9363C75.0089 83.4403 74.8015 82.9478 73.6499 82.048C72.7242 81.3259 72.1244 81.7851 71.3653 82.4257C72.4428 83.2922 73.3907 84.055 74.4905 84.94V84.9363ZM32.4367 71.7021C32.9847 71.1319 33.5327 70.5579 34.0808 69.9877C33.0736 70.4592 32.5256 71.0307 32.4367 71.7021ZM99.0518 61.6117C99.1703 61.7376 99.2925 61.8672 99.411 61.9931C99.7146 61.8117 100.018 61.6302 100.322 61.4488C100.181 61.2562 100.041 61.06 99.8998 60.8674C99.6184 61.1155 99.3332 61.3636 99.0518 61.6154V61.6117ZM102.055 115.407C101.959 115.481 101.862 115.556 101.766 115.63C101.951 116.059 102.136 116.489 102.325 116.922C102.414 116.885 102.499 116.852 102.588 116.815C102.41 116.344 102.233 115.878 102.055 115.407Z" fill="black"></path><path d="M69.7738 63.4307C68.3556 63.0085 67.1411 62.6234 65.9117 62.2865C64.7046 61.9569 63.4826 61.6829 62.0015 61.32C63.1753 60.7831 64.1343 60.4795 64.9379 59.9462C65.7747 59.3871 66.456 58.5984 67.2225 57.9282C67.5262 57.6615 67.8446 57.3579 68.2112 57.2209C68.737 57.0246 69.4554 56.6988 69.8405 56.9025C70.4552 57.2283 70.2552 57.9133 69.8849 58.4984C69.7294 58.7428 69.7775 59.1279 69.7775 59.45C69.7664 60.7312 69.7738 62.0125 69.7738 63.427V63.4307ZM64.8786 61.0608C64.8564 61.1756 64.8305 61.2904 64.8083 61.4015C65.5118 61.5274 66.2117 61.6533 67.0707 61.8088C66.9967 61.2163 66.9448 60.7942 66.8782 60.261C66.0932 60.572 65.4859 60.8164 64.8749 61.0608H64.8786Z" fill="black"></path><path d="M69.378 50.5259V53.2216C66.2121 54.1547 63.0276 54.8731 59.3062 55.1175C59.6505 54.4435 59.7394 53.9029 60.0134 53.7807C62.9868 52.4662 66.0306 51.3405 69.378 50.5259Z" fill="black"></path><path d="M37.1032 59.4424C39.7433 60.9272 40.1988 65.0708 38.8435 67.5814C38.2622 66.9222 37.6179 66.3335 37.1476 65.6262C36.2663 64.3117 36.5737 62.8528 37.9882 61.4123C37.7216 60.8199 37.4364 60.1867 37.1032 59.4424ZM38.1215 64.6746C38.3029 64.682 38.4844 64.6931 38.6621 64.7005C38.6325 64.1969 38.6029 63.6896 38.5695 63.186L38.1178 63.2119V64.6709L38.1215 64.6746Z" fill="black"></path><path d="M70.6097 52.762C69.6433 51.9992 69.6211 51.5326 70.4542 50.9883C70.4949 51.4511 70.5357 51.914 70.6097 52.762Z" fill="black"></path><path d="M10.7568 104.606C13.7821 101.392 16.8074 98.1746 19.8326 94.9604C19.9474 95.0678 20.0659 95.1752 20.1807 95.2826C17.1925 98.5486 14.2042 101.815 11.2197 105.077C11.0642 104.921 10.9124 104.762 10.7568 104.606Z" fill="black"></path><path d="M101.978 53.7132C99.0009 53.043 95.9053 53.3873 92.8689 53.0985L92.7578 52.5949C93.0652 52.2987 93.3207 51.8655 93.6835 51.7321C95.9571 50.8953 98.3196 50.6509 100.708 51.0545C102.215 51.31 102.415 51.7914 101.978 53.7169V53.7132Z" fill="black"></path><path d="M100.167 75.1281C101.597 72.5879 104.707 71.0105 107.136 71.2586C108.095 71.3548 109.099 71.0475 110.058 70.9253C110.821 72.973 110.443 74.1394 108.754 74.4245C106.222 74.8541 103.652 75.0799 101.097 75.3725C100.863 75.3984 100.608 75.2503 100.164 75.1281H100.167ZM102.059 73.8432C102.1 73.995 102.141 74.1468 102.182 74.3023C104.255 74.032 106.329 73.7728 108.399 73.484C109.262 73.3618 109.743 72.9582 109.387 72.0399C108.614 72.0991 107.892 72.3472 107.295 72.1695C105.085 71.5141 103.622 72.7693 102.059 73.8432Z" fill="black"></path><path d="M111.93 57.0281C111.616 57.4984 111.434 57.7761 111.231 58.0797C113.837 57.6317 114.156 57.7761 114.822 59.8534C114.448 59.7127 114.185 59.6164 113.878 59.5017C113.371 59.8868 112.838 60.5681 112.186 60.7051C111.601 60.831 110.89 60.3607 110.183 60.1386C109.768 60.7495 110.186 60.9939 110.686 61.0495C111.286 61.1124 111.901 61.0717 112.504 61.0124C113.093 60.9532 113.674 60.8051 114.382 60.6755C113.2 62.0344 110.642 62.3529 109.564 61.3161C109.268 61.031 109.083 60.5014 109.061 60.0756C108.987 58.6352 109.946 57.6058 111.919 57.0244L111.93 57.0281Z" fill="black"></path><path d="M106.214 66.2376C106.602 66.2635 107.084 66.4449 107.369 66.282C108.106 65.8599 108.757 65.2859 109.546 64.7009C109.006 63.9344 108.487 63.2012 107.769 62.1792C110.357 63.8862 110.59 64.3454 110.142 66.4635C108.413 67.6151 106.465 67.6743 104.492 67.6373C103.696 67.6225 102.944 67.4743 102.633 66.6671C102.333 65.8858 102.311 65.0823 103.281 64.3972C103.355 64.8601 103.41 65.1897 103.455 65.4822C104.37 65.7044 105.266 65.9191 106.162 66.1376C105.395 66.1376 104.629 66.1376 103.859 66.1376C103.859 66.1709 103.866 66.2043 103.866 66.2376H106.214Z" fill="black"></path><path d="M108.895 75.8575C108.662 76.5055 108.588 77.2905 108.165 77.7719C107.321 78.7309 106.321 79.5641 105.307 80.3454C105.018 80.5676 104.244 80.6342 104.059 80.4305C103.1 79.4011 102.244 78.2755 101.396 77.1498C101.274 76.9869 101.378 76.6462 101.378 76.2944C104.603 79.7529 106.021 78.605 108.432 75.7427C108.584 75.7797 108.739 75.8167 108.891 75.8538L108.895 75.8575Z" fill="black"></path><path d="M109.172 53.188C109.121 53.0176 109.006 52.6399 108.898 52.2845C111.646 50.5922 113.705 50.8403 115.09 53.188H109.172Z" fill="black"></path><path d="M108.828 68.6592C109.147 69.4886 108.543 69.8515 107.784 69.9552C106.955 70.0663 106.24 69.8367 106.147 68.9184C107.092 68.8295 107.895 68.7518 108.825 68.6592H108.828Z" fill="black"></path><path d="M87.8797 59.4642C85.0211 58.3274 82.0329 58.5052 79.2261 56.7574C82.7772 56.0983 84.9137 53.6359 87.5983 52.0732C89.098 53.1989 87.2873 54.3876 87.7909 55.6206C88.213 56.6574 87.8797 58.0053 87.8797 59.4642ZM84.5027 57.8794C84.4064 57.0833 84.3324 56.4834 84.2398 55.7206C83.1215 56.1353 82.1884 56.4797 81.2516 56.8241C81.2701 56.9463 81.2923 57.0685 81.3108 57.1906C82.3069 57.4054 83.2993 57.6202 84.499 57.8794H84.5027Z" fill="black"></path><path d="M76.7383 49.5407C79.8191 47.4337 83.3517 46.5043 86.9249 45.6489C87.7544 47.9929 87.4767 48.5002 85.3549 48.8519C83.0073 49.2407 80.6596 49.6406 78.3083 50.0072C77.8269 50.0813 77.3233 50.0183 76.8309 50.0183C76.8012 49.8591 76.7716 49.6999 76.7457 49.5407H76.7383Z" fill="black"></path><path d="M137.356 56.5571C137.689 56.3572 138.018 56.235 138.337 56.1831C138.655 56.135 138.97 56.1535 139.277 56.2424L139.185 57.1163C138.929 57.0459 138.689 57.0237 138.459 57.0496C138.229 57.0755 138 57.157 137.77 57.294C137.637 57.3755 137.537 57.4532 137.47 57.531C137.404 57.6087 137.367 57.6865 137.363 57.7569C137.356 57.8309 137.374 57.8976 137.411 57.9642C137.456 58.042 137.53 58.0827 137.633 58.0938C137.737 58.1049 137.878 58.079 138.059 58.0198L138.748 57.7939C139.159 57.6643 139.496 57.6273 139.759 57.6902C140.022 57.7495 140.233 57.9124 140.388 58.179C140.54 58.4345 140.603 58.69 140.577 58.9418C140.551 59.1936 140.451 59.438 140.273 59.6602C140.096 59.886 139.862 60.086 139.566 60.26C139.325 60.4044 139.081 60.5118 138.833 60.5896C138.585 60.6673 138.341 60.7081 138.107 60.7155C137.874 60.7229 137.659 60.697 137.463 60.6414L137.541 59.7453C137.696 59.7972 137.863 59.8231 138.044 59.8268C138.226 59.8268 138.411 59.8083 138.596 59.7601C138.781 59.712 138.959 59.6416 139.122 59.5454C139.248 59.4713 139.348 59.3935 139.418 59.3158C139.488 59.238 139.529 59.164 139.537 59.0899C139.548 59.0158 139.529 58.9418 139.488 58.8751C139.444 58.7974 139.377 58.7492 139.292 58.7307C139.207 58.7122 139.077 58.7307 138.9 58.7826L138.144 59.0307C137.911 59.1047 137.693 59.1491 137.489 59.164C137.285 59.1788 137.096 59.1491 136.926 59.0714C136.756 58.9936 136.611 58.8529 136.493 58.653C136.359 58.4271 136.3 58.1901 136.319 57.9383C136.337 57.6865 136.434 57.4421 136.604 57.2014C136.774 56.9607 137.022 56.746 137.348 56.5497L137.356 56.5571Z" fill="#1D1D1B"></path><path d="M142.65 53.4837L143.921 55.6166C144.224 56.1276 144.317 56.5867 144.195 57.0014C144.072 57.4162 143.746 57.779 143.217 58.0975C142.687 58.4159 142.214 58.5233 141.791 58.4345C141.369 58.3456 141.006 58.0457 140.703 57.5347L139.433 55.4018L140.377 54.8389L141.658 56.9903C141.814 57.2495 141.984 57.4088 142.169 57.468C142.354 57.531 142.562 57.4939 142.784 57.3606C143.006 57.2273 143.139 57.0644 143.176 56.8681C143.21 56.6756 143.15 56.4497 142.999 56.1905L141.717 54.0391L142.658 53.48L142.65 53.4837Z" fill="#1D1D1B"></path><path d="M146.608 52.1098L144.745 53.217L145.201 53.9798L146.685 53.0948L147.119 53.8206L145.634 54.7056L146.46 56.0905L145.519 56.6496L143.375 53.0467L146.174 51.3804L146.608 52.1061V52.1098Z" fill="#1D1D1B"></path><path d="M149.948 50.1211L148.086 51.2282L148.541 51.991L150.026 51.106L150.459 51.8318L148.975 52.7168L149.8 54.1017L148.86 54.6608L146.716 51.0579L149.515 49.3916L149.948 50.1174V50.1211Z" fill="#1D1D1B"></path><path d="M150.996 48.5146L153.14 52.1176L152.2 52.6767L150.056 49.0738L150.996 48.5146Z" fill="#1D1D1B"></path><path d="M154.822 46.2373L155.255 46.9631L154.082 47.6629L155.792 50.5401L154.852 51.0992L153.141 48.2221L151.964 48.9219L151.53 48.1961L154.822 46.2373Z" fill="#1D1D1B"></path><path d="M158.872 47.5297C159.038 47.4297 159.194 47.3927 159.334 47.4186C159.475 47.4445 159.59 47.5297 159.675 47.6741C159.76 47.8185 159.779 47.9555 159.734 48.0888C159.69 48.2221 159.583 48.3406 159.416 48.4406C159.249 48.5406 159.105 48.5702 158.96 48.548C158.82 48.5257 158.705 48.4406 158.62 48.2999C158.535 48.1592 158.512 48.0147 158.561 47.8777C158.609 47.7407 158.712 47.6259 158.872 47.5297ZM157.731 44.5044L158.424 45.6671L159.075 46.9964L158.316 47.4482L157.457 46.2448L156.765 45.082L157.731 44.5081V44.5044Z" fill="#1D1D1B"></path><path d="M161.003 41.4648C161.336 41.2649 161.665 41.1427 161.984 41.0908C162.302 41.0427 162.617 41.0612 162.924 41.1501L162.832 42.024C162.576 41.9536 162.336 41.9314 162.106 41.9573C161.876 41.9832 161.647 42.0647 161.417 42.2017C161.284 42.2832 161.184 42.3609 161.117 42.4387C161.051 42.5165 161.014 42.5942 161.01 42.6646C161.003 42.7386 161.021 42.8053 161.058 42.8719C161.103 42.9497 161.177 42.9904 161.28 43.0015C161.384 43.0126 161.525 42.9867 161.706 42.9275L162.395 42.7016C162.806 42.572 163.143 42.535 163.406 42.5979C163.669 42.6572 163.88 42.8201 164.035 43.0867C164.191 43.3533 164.25 43.5977 164.224 43.8495C164.198 44.1013 164.098 44.3457 163.92 44.5679C163.743 44.7937 163.509 44.9937 163.213 45.1677C162.972 45.3121 162.728 45.4195 162.48 45.4973C162.232 45.5751 161.987 45.6158 161.754 45.6232C161.521 45.6306 161.306 45.6047 161.11 45.5491L161.188 44.653C161.343 44.7049 161.51 44.7308 161.691 44.7345C161.873 44.7345 162.058 44.716 162.243 44.6678C162.428 44.6197 162.606 44.5493 162.769 44.4531C162.895 44.379 162.995 44.3013 163.065 44.2235C163.135 44.1457 163.176 44.0717 163.184 43.9976C163.195 43.9236 163.176 43.8495 163.135 43.7828C163.091 43.7051 163.024 43.657 162.939 43.6384C162.854 43.6199 162.724 43.6384 162.547 43.6903L161.791 43.9384C161.558 44.0124 161.339 44.0569 161.136 44.0717C160.932 44.0865 160.743 44.0569 160.573 43.9791C160.403 43.9013 160.258 43.7606 160.14 43.5607C160.006 43.3348 159.947 43.0978 159.966 42.846C159.984 42.5942 160.081 42.3498 160.251 42.1091C160.421 41.8685 160.669 41.6537 160.995 41.4574L161.003 41.4648Z" fill="#1D1D1B"></path><path d="M166.298 38.388L167.568 40.5209C167.872 41.0318 167.965 41.491 167.842 41.9057C167.72 42.3205 167.394 42.6833 166.865 43.0018C166.335 43.3202 165.861 43.4276 165.439 43.3388C165.017 43.2499 164.654 42.95 164.351 42.439L163.081 40.3061L164.025 39.7432L165.306 41.8946C165.462 42.1538 165.632 42.3131 165.817 42.3723C166.002 42.4352 166.21 42.3982 166.432 42.2649C166.654 42.1316 166.787 41.9687 166.824 41.7724C166.858 41.5799 166.798 41.354 166.646 41.0948L165.365 38.9434L166.306 38.3843L166.298 38.388Z" fill="#1D1D1B"></path><path d="M170.256 37.0141L168.394 38.1213L168.849 38.8841L170.334 37.9991L170.767 38.7249L169.282 39.6099L170.108 40.9948L169.167 41.5539L167.023 37.951L169.823 36.2847L170.256 37.0104V37.0141Z" fill="#1D1D1B"></path><path d="M173.597 35.0254L171.734 36.1325L172.19 36.8953L173.675 36.0103L174.108 36.7361L172.623 37.6211L173.449 39.006L172.508 39.5651L170.364 35.9622L173.164 34.2959L173.597 35.0217V35.0254Z" fill="#1D1D1B"></path><path d="M174.645 33.418L176.789 37.0209L175.849 37.58L173.705 33.9771L174.645 33.418Z" fill="#1D1D1B"></path><path d="M178.47 31.1411L178.903 31.8669L177.729 32.5667L179.44 35.4439L178.499 36.003L176.788 33.1259L175.611 33.8257L175.178 33.0999L178.47 31.1411Z" fill="#1D1D1B"></path><path d="M182.521 32.4335C182.688 32.3335 182.843 32.2965 182.984 32.3224C183.125 32.3483 183.239 32.4335 183.325 32.5779C183.41 32.7223 183.428 32.8593 183.384 32.9926C183.339 33.1259 183.232 33.2444 183.065 33.3444C182.899 33.4444 182.754 33.474 182.61 33.4518C182.469 33.4295 182.354 33.3444 182.269 33.2037C182.184 33.063 182.162 32.9185 182.21 32.7815C182.258 32.6445 182.362 32.5297 182.521 32.4335ZM181.381 29.4082L182.073 30.5709L182.725 31.9003L181.966 32.352L181.107 31.1486L180.414 29.9859L181.381 29.4119V29.4082Z" fill="#1D1D1B"></path><path d="M131.375 45.4374C131.66 45.1708 131.953 44.982 132.253 44.8672C132.553 44.7524 132.864 44.7043 133.182 44.7265L133.278 45.6004C133.015 45.5855 132.775 45.6152 132.556 45.6855C132.338 45.7596 132.13 45.8855 131.934 46.0669C131.819 46.1743 131.738 46.2743 131.69 46.3631C131.642 46.4557 131.623 46.5372 131.631 46.6075C131.642 46.6816 131.671 46.7445 131.723 46.8001C131.782 46.8667 131.864 46.8927 131.968 46.8816C132.071 46.8704 132.205 46.8149 132.367 46.7186L132.993 46.3557C133.367 46.141 133.689 46.0373 133.956 46.041C134.226 46.041 134.467 46.1595 134.678 46.3854C134.889 46.6112 134.997 46.8371 135.022 47.0926C135.048 47.3481 135.004 47.6036 134.878 47.8591C134.752 48.1183 134.567 48.3627 134.315 48.596C134.112 48.7848 133.893 48.9441 133.667 49.0737C133.441 49.2033 133.212 49.2921 132.986 49.3477C132.76 49.4032 132.545 49.4217 132.342 49.4106L132.23 48.5182C132.393 48.5367 132.56 48.5256 132.738 48.4923C132.915 48.4553 133.09 48.396 133.264 48.3109C133.438 48.2257 133.593 48.1183 133.73 47.9887C133.837 47.8887 133.919 47.7925 133.971 47.7036C134.023 47.6147 134.045 47.5333 134.041 47.4555C134.034 47.3814 134.004 47.3148 133.949 47.2555C133.889 47.1889 133.815 47.1556 133.726 47.1556C133.638 47.1556 133.515 47.2 133.356 47.2889L132.671 47.6925C132.46 47.8147 132.256 47.9036 132.06 47.9628C131.864 48.022 131.675 48.0295 131.49 47.9887C131.308 47.948 131.138 47.8406 130.979 47.6703C130.801 47.4777 130.694 47.2592 130.657 47.0112C130.623 46.7631 130.664 46.5039 130.783 46.2298C130.901 45.9595 131.097 45.6929 131.371 45.4374H131.375Z" fill="#1D1D1B"></path><path d="M135.896 41.3086L137.588 43.1267C137.992 43.56 138.181 43.9932 138.147 44.4227C138.118 44.8523 137.877 45.2781 137.425 45.7002C136.977 46.1187 136.537 46.3297 136.103 46.3297C135.67 46.3297 135.252 46.115 134.848 45.6817L133.156 43.8636L133.959 43.1156L135.666 44.9448C135.87 45.1633 136.07 45.2855 136.266 45.304C136.462 45.3262 136.655 45.2485 136.844 45.0707C137.036 44.893 137.129 44.7041 137.122 44.5079C137.114 44.3116 137.01 44.1043 136.803 43.8821L135.096 42.0529L135.896 41.3086Z" fill="#1D1D1B"></path><path d="M139.477 39.1284L137.892 40.6058L138.499 41.2575L139.762 40.08L140.339 40.6984L139.077 41.8759L140.177 43.0571L139.377 43.8014L136.518 40.7354L138.903 38.5137L139.48 39.1321L139.477 39.1284Z" fill="#1D1D1B"></path><path d="M142.322 36.4799L140.737 37.9574L141.344 38.6091L142.607 37.4316L143.185 38.0499L141.922 39.2275L143.022 40.4087L142.222 41.153L139.363 38.087L141.748 35.8652L142.326 36.4836L142.322 36.4799Z" fill="#1D1D1B"></path><path d="M143.003 34.688L145.862 37.754L145.062 38.4983L142.203 35.4323L143.003 34.688Z" fill="#1D1D1B"></path><path d="M146.26 31.6514L146.837 32.2698L145.838 33.1992L148.118 35.6468L147.319 36.3911L145.038 33.9435L144.034 34.8803L143.457 34.2619L146.26 31.6514Z" fill="#1D1D1B"></path><path d="M150.494 32.059C150.634 31.9256 150.779 31.8553 150.92 31.8516C151.064 31.8479 151.19 31.9071 151.308 32.0293C151.427 32.1515 151.471 32.2811 151.453 32.4218C151.438 32.5625 151.356 32.6996 151.216 32.8329C151.075 32.9662 150.938 33.0254 150.794 33.0328C150.649 33.0402 150.52 32.981 150.409 32.8625C150.297 32.744 150.246 32.6033 150.26 32.4626C150.279 32.3182 150.353 32.1848 150.49 32.059H150.494ZM148.739 29.3447L149.661 30.3334L150.575 31.4924L149.931 32.096L148.839 31.0999L147.917 30.1112L148.739 29.3447Z" fill="#1D1D1B"></path><path d="M151.289 25.6786C151.574 25.412 151.867 25.2232 152.167 25.1084C152.467 24.9936 152.778 24.9455 153.096 24.9677L153.192 25.8416C152.93 25.8268 152.689 25.8564 152.47 25.9267C152.252 26.0008 152.045 26.1267 151.848 26.3081C151.733 26.4155 151.652 26.5155 151.604 26.6044C151.556 26.6969 151.537 26.7784 151.545 26.8488C151.556 26.9228 151.585 26.9858 151.637 27.0413C151.696 27.108 151.778 27.1339 151.882 27.1228C151.985 27.1117 152.119 27.0561 152.282 26.9598L152.907 26.597C153.281 26.3822 153.603 26.2785 153.87 26.2822C154.14 26.2822 154.381 26.4007 154.592 26.6266C154.803 26.8525 154.911 27.0783 154.936 27.3338C154.962 27.5893 154.918 27.8448 154.792 28.1003C154.666 28.3595 154.481 28.6039 154.229 28.8372C154.026 29.0261 153.807 29.1853 153.581 29.3149C153.355 29.4445 153.126 29.5334 152.9 29.5889C152.674 29.6444 152.459 29.663 152.256 29.6518L152.145 28.7594C152.307 28.778 152.474 28.7669 152.652 28.7335C152.83 28.6965 153.004 28.6373 153.178 28.5521C153.352 28.4669 153.507 28.3595 153.644 28.2299C153.752 28.13 153.833 28.0337 153.885 27.9448C153.937 27.8559 153.959 27.7745 153.955 27.6967C153.948 27.6227 153.918 27.556 153.863 27.4968C153.803 27.4301 153.729 27.3968 153.64 27.3968C153.552 27.3968 153.429 27.4412 153.27 27.5301L152.585 27.9337C152.374 28.0559 152.17 28.1448 151.974 28.204C151.778 28.2633 151.589 28.2707 151.404 28.2299C151.222 28.1892 151.052 28.0818 150.893 27.9115C150.715 27.7189 150.608 27.5005 150.571 27.2524C150.537 27.0043 150.578 26.7451 150.697 26.4711C150.815 26.2007 151.011 25.9341 151.285 25.6786H151.289Z" fill="#1D1D1B"></path><path d="M155.813 21.5508L157.505 23.3689C157.909 23.8021 158.098 24.2354 158.064 24.6649C158.035 25.0945 157.794 25.5203 157.342 25.9424C156.894 26.3608 156.453 26.5719 156.02 26.5719C155.587 26.5719 155.169 26.3571 154.765 25.9239L153.073 24.1058L153.876 23.3578L155.583 25.187C155.787 25.4055 155.987 25.5277 156.183 25.5462C156.379 25.5684 156.572 25.4907 156.761 25.3129C156.95 25.1352 157.046 24.9463 157.039 24.7501C157.031 24.5538 156.927 24.3465 156.72 24.1243L155.013 22.2951L155.813 21.5508Z" fill="#1D1D1B"></path><path d="M159.39 19.3696L157.805 20.847L158.413 21.4987L159.675 20.3212L160.253 20.9396L158.99 22.1171L160.09 23.2983L159.29 24.0426L156.432 20.9766L158.816 18.7549L159.394 19.3733L159.39 19.3696Z" fill="#1D1D1B"></path><path d="M162.234 16.7216L160.65 18.1991L161.257 18.8508L162.52 17.6733L163.097 18.2916L161.835 19.4692L162.934 20.6504L162.135 21.3947L159.276 18.3287L161.661 16.1069L162.238 16.7253L162.234 16.7216Z" fill="#1D1D1B"></path><path d="M162.919 14.9302L165.778 17.9962L164.978 18.7405L162.12 15.6745L162.919 14.9302Z" fill="#1D1D1B"></path><path d="M166.177 11.8931L166.755 12.5115L165.755 13.4409L168.036 15.8885L167.236 16.6328L164.955 14.1852L163.952 15.122L163.374 14.5036L166.177 11.8931Z" fill="#1D1D1B"></path><path d="M170.41 12.3006C170.551 12.1673 170.695 12.097 170.836 12.0933C170.98 12.0896 171.106 12.1488 171.225 12.271C171.343 12.3932 171.388 12.5228 171.369 12.6635C171.354 12.8042 171.273 12.9413 171.132 13.0746C170.992 13.2079 170.855 13.2671 170.71 13.2745C170.566 13.2819 170.436 13.2227 170.325 13.1042C170.214 12.9857 170.162 12.845 170.177 12.7043C170.195 12.5599 170.27 12.4265 170.407 12.3006H170.41ZM168.655 9.58643L169.577 10.5751L170.492 11.7341L169.847 12.3377L168.755 11.3416L167.833 10.3529L168.655 9.58643Z" fill="#1D1D1B"></path><path d="M140.38 89.3868C140.765 89.4424 141.099 89.5498 141.376 89.709C141.654 89.8719 141.887 90.083 142.072 90.3422L141.45 90.968C141.298 90.7532 141.124 90.5866 140.928 90.4607C140.736 90.3385 140.506 90.257 140.239 90.22C140.084 90.1978 139.958 90.1978 139.854 90.22C139.754 90.2385 139.677 90.2755 139.628 90.3274C139.577 90.3792 139.547 90.4459 139.536 90.5199C139.525 90.6088 139.554 90.6865 139.628 90.7606C139.703 90.8347 139.828 90.905 140.006 90.9717L140.684 91.2272C141.084 91.3827 141.369 91.5641 141.535 91.7789C141.702 91.99 141.765 92.2492 141.721 92.5565C141.676 92.8638 141.569 93.086 141.387 93.2712C141.206 93.4563 140.98 93.5785 140.699 93.6415C140.421 93.7081 140.11 93.7155 139.773 93.6674C139.495 93.6266 139.236 93.56 138.992 93.4637C138.747 93.3674 138.536 93.249 138.351 93.1082C138.166 92.9675 138.014 92.812 137.896 92.6454L138.521 91.9974C138.61 92.1344 138.721 92.2603 138.862 92.3751C139.003 92.4899 139.158 92.5898 139.332 92.6713C139.506 92.7528 139.688 92.8046 139.877 92.8305C140.025 92.8527 140.147 92.8527 140.251 92.8379C140.354 92.8231 140.432 92.7898 140.488 92.738C140.543 92.6861 140.576 92.6195 140.588 92.5417C140.599 92.4528 140.58 92.3751 140.525 92.3047C140.469 92.2344 140.358 92.1677 140.188 92.1011L139.443 91.8233C139.217 91.7345 139.017 91.6345 138.847 91.516C138.677 91.4012 138.551 91.2568 138.469 91.0902C138.388 90.9235 138.362 90.7236 138.395 90.494C138.432 90.2348 138.536 90.0126 138.706 89.8275C138.877 89.646 139.106 89.5127 139.391 89.435C139.677 89.3572 140.006 89.3424 140.38 89.3942V89.3868Z" fill="#1D1D1B"></path><path d="M146.435 90.309L146.086 92.7677C146.005 93.3565 145.787 93.7712 145.431 94.0193C145.076 94.2674 144.594 94.3452 143.983 94.26C143.372 94.1748 142.935 93.9638 142.661 93.6268C142.387 93.2898 142.295 92.8307 142.376 92.2419L142.724 89.7832L143.813 89.9387L143.461 92.416C143.42 92.7122 143.45 92.9455 143.557 93.1084C143.665 93.275 143.846 93.375 144.102 93.4083C144.357 93.4417 144.565 93.4009 144.716 93.2713C144.865 93.1417 144.961 92.9307 145.002 92.6307L145.353 90.1535L146.435 90.3053V90.309Z" fill="#1D1D1B"></path><path d="M150.377 91.7196L148.233 91.4159L148.107 92.2972L149.818 92.5379L149.699 93.3747L147.988 93.1341L147.762 94.73L146.681 94.5782L147.27 90.4272L150.495 90.8827L150.377 91.7196Z" fill="#1D1D1B"></path><path d="M154.224 92.2645L152.08 91.9608L151.954 92.8421L153.665 93.0828L153.547 93.9197L151.836 93.679L151.61 95.2749L150.529 95.1231L151.118 90.9722L154.343 91.4276L154.224 92.2645Z" fill="#1D1D1B"></path><path d="M156.05 91.6714L155.462 95.8223L154.38 95.6705L154.969 91.5195L156.05 91.6714Z" fill="#1D1D1B"></path><path d="M160.457 92.2938L160.338 93.1306L158.987 92.9381L158.516 96.2522L157.435 96.1003L157.905 92.7862L156.546 92.5937L156.665 91.7568L160.457 92.2938Z" fill="#1D1D1B"></path><path d="M162.804 95.841C162.997 95.8669 163.141 95.9373 163.234 96.0447C163.326 96.1521 163.363 96.2891 163.337 96.4557C163.311 96.6223 163.241 96.7408 163.123 96.8149C163.004 96.8927 162.845 96.9186 162.652 96.8889C162.46 96.8593 162.326 96.7964 162.23 96.689C162.134 96.5816 162.097 96.4446 162.123 96.2817C162.149 96.1187 162.219 95.9928 162.341 95.9151C162.463 95.8373 162.615 95.8114 162.8 95.8373L162.804 95.841ZM163.811 92.7676L163.622 94.1081L163.297 95.5485L162.423 95.4263L162.512 93.9488L162.7 92.6084L163.815 92.7676H163.811Z" fill="#1D1D1B"></path><path d="M168.004 93.8082C168.389 93.8638 168.723 93.9711 169 94.1304C169.278 94.2933 169.511 94.5044 169.696 94.7636L169.074 95.3893C168.922 95.1746 168.748 95.008 168.552 94.8821C168.36 94.7599 168.13 94.6784 167.863 94.6414C167.708 94.6192 167.582 94.6192 167.478 94.6414C167.378 94.6599 167.301 94.6969 167.252 94.7487C167.201 94.8006 167.171 94.8672 167.16 94.9413C167.149 95.0302 167.178 95.1079 167.252 95.182C167.327 95.256 167.452 95.3264 167.63 95.3931L168.308 95.6486C168.708 95.8041 168.993 95.9855 169.159 96.2003C169.326 96.4113 169.389 96.6706 169.345 96.9779C169.3 97.2852 169.193 97.5074 169.011 97.6926C168.83 97.8777 168.604 97.9999 168.323 98.0628C168.045 98.1295 167.734 98.1369 167.397 98.0888C167.119 98.048 166.86 97.9814 166.616 97.8851C166.371 97.7888 166.16 97.6703 165.975 97.5296C165.79 97.3889 165.638 97.2334 165.52 97.0668L166.145 96.4188C166.234 96.5558 166.345 96.6817 166.486 96.7965C166.627 96.9112 166.782 97.0112 166.956 97.0927C167.13 97.1741 167.312 97.226 167.501 97.2519C167.649 97.2741 167.771 97.2741 167.875 97.2593C167.978 97.2445 168.056 97.2112 168.112 97.1593C168.167 97.1075 168.2 97.0408 168.212 96.9631C168.223 96.8742 168.204 96.7965 168.149 96.7261C168.093 96.6557 167.982 96.5891 167.812 96.5224L167.067 96.2447C166.841 96.1558 166.642 96.0559 166.471 95.9374C166.301 95.8226 166.175 95.6782 166.093 95.5115C166.012 95.3449 165.986 95.145 166.019 94.9154C166.056 94.6562 166.16 94.434 166.33 94.2489C166.501 94.0674 166.73 93.9341 167.016 93.8563C167.301 93.7786 167.63 93.7638 168.004 93.8156V93.8082Z" fill="#1D1D1B"></path><path d="M174.059 94.7299L173.71 97.1886C173.629 97.7774 173.411 98.1921 173.055 98.4402C172.7 98.6883 172.218 98.7661 171.607 98.6809C170.996 98.5957 170.559 98.3847 170.285 98.0477C170.011 97.7107 169.919 97.2516 170 96.6628L170.348 94.2041L171.437 94.3596L171.085 96.8369C171.044 97.1331 171.074 97.3664 171.181 97.5293C171.289 97.6959 171.47 97.7959 171.726 97.8292C171.981 97.8626 172.189 97.8218 172.34 97.6922C172.489 97.5626 172.585 97.3516 172.626 97.0516L172.977 94.5744L174.059 94.7262V94.7299Z" fill="#1D1D1B"></path><path d="M178.002 96.1409L175.858 95.8373L175.732 96.7186L177.443 96.9593L177.324 97.7961L175.613 97.5554L175.387 99.1514L174.306 98.9996L174.895 94.8486L178.12 95.3041L178.002 96.1409Z" fill="#1D1D1B"></path><path d="M181.853 96.6854L179.709 96.3817L179.583 97.263L181.294 97.5037L181.176 98.3406L179.465 98.0999L179.239 99.6958L178.158 99.544L178.746 95.3931L181.972 95.8485L181.853 96.6854Z" fill="#1D1D1B"></path><path d="M183.675 96.0927L183.087 100.244L182.005 100.092L182.594 95.9409L183.675 96.0927Z" fill="#1D1D1B"></path><path d="M188.086 96.7151L187.968 97.552L186.616 97.3594L186.146 100.674L185.064 100.522L185.535 97.2076L184.176 97.0151L184.294 96.1782L188.086 96.7151Z" fill="#1D1D1B"></path><path d="M190.428 100.262C190.621 100.288 190.765 100.358 190.858 100.466C190.95 100.573 190.987 100.71 190.961 100.877C190.935 101.043 190.865 101.162 190.747 101.236C190.628 101.314 190.469 101.339 190.276 101.31C190.084 101.28 189.95 101.217 189.854 101.11C189.758 101.003 189.721 100.865 189.747 100.703C189.773 100.54 189.843 100.414 189.965 100.336C190.087 100.258 190.239 100.232 190.424 100.258L190.428 100.262ZM191.435 97.1885L191.246 98.529L190.921 99.9694L190.047 99.8472L190.136 98.3697L190.324 97.0293L191.439 97.1885H191.435Z" fill="#1D1D1B"></path><path d="M139.211 67.658C139.589 67.5654 139.937 67.5469 140.256 67.5951C140.574 67.6432 140.867 67.7543 141.137 67.9283L140.789 68.7356C140.567 68.5912 140.345 68.4986 140.119 68.4541C139.893 68.4097 139.648 68.4208 139.389 68.4801C139.237 68.5171 139.119 68.5615 139.03 68.6171C138.945 68.6726 138.886 68.7356 138.86 68.8022C138.834 68.8689 138.826 68.9392 138.845 69.0133C138.867 69.0984 138.923 69.1651 139.019 69.2021C139.115 69.2429 139.256 69.2614 139.448 69.2577L140.17 69.2466C140.6 69.2466 140.933 69.3095 141.167 69.4465C141.4 69.5835 141.552 69.802 141.626 70.1019C141.7 70.4019 141.678 70.6537 141.578 70.8869C141.478 71.1202 141.311 71.3202 141.074 71.4831C140.837 71.646 140.556 71.7682 140.222 71.846C139.952 71.9126 139.685 71.9423 139.422 71.9423C139.16 71.9423 138.919 71.9089 138.693 71.846C138.467 71.783 138.271 71.6942 138.101 71.5831L138.441 70.7499C138.575 70.8462 138.726 70.9203 138.897 70.9758C139.071 71.0314 139.252 71.0647 139.445 71.0758C139.637 71.0869 139.826 71.0684 140.011 71.024C140.156 70.9906 140.274 70.9462 140.363 70.8944C140.452 70.8425 140.515 70.7833 140.544 70.7129C140.574 70.6463 140.582 70.5722 140.563 70.4944C140.541 70.4093 140.493 70.3426 140.419 70.2982C140.341 70.2538 140.211 70.2315 140.03 70.2315L139.237 70.2463C138.993 70.2463 138.771 70.2278 138.571 70.1797C138.371 70.1353 138.201 70.0501 138.064 69.9242C137.923 69.7983 137.827 69.6243 137.775 69.3947C137.712 69.1392 137.73 68.8948 137.823 68.6615C137.915 68.4282 138.078 68.2209 138.315 68.0431C138.552 67.8654 138.852 67.7321 139.219 67.6432L139.211 67.658Z" fill="#1D1D1B"></path><path d="M145.181 66.292L145.758 68.7063C145.895 69.2839 145.847 69.7505 145.606 70.1097C145.369 70.4689 144.947 70.7207 144.347 70.8651C143.751 71.0095 143.262 70.9725 142.885 70.7614C142.507 70.5503 142.248 70.1541 142.111 69.5802L141.533 67.1659L142.603 66.9104L143.188 69.3432C143.259 69.6357 143.374 69.8394 143.533 69.9542C143.692 70.0689 143.899 70.0949 144.151 70.0356C144.403 69.9764 144.581 69.8579 144.67 69.6838C144.762 69.5098 144.77 69.2765 144.699 68.984L144.114 66.5512L145.177 66.2957L145.181 66.292Z" fill="#1D1D1B"></path><path d="M149.368 66.1548L147.261 66.6584L147.468 67.5248L149.149 67.1212L149.346 67.9433L147.665 68.3469L148.042 69.9169L146.98 70.1724L146.002 66.0955L149.172 65.3364L149.368 66.1585V66.1548Z" fill="#1D1D1B"></path><path d="M153.149 65.2471L151.042 65.7506L151.249 66.6171L152.93 66.2135L153.126 67.0356L151.445 67.4392L151.823 69.0092L150.76 69.2647L149.783 65.1878L152.952 64.4287L153.149 65.2508V65.2471Z" fill="#1D1D1B"></path><path d="M154.626 64.0254L155.604 68.1023L154.541 68.3578L153.563 64.2809L154.626 64.0254Z" fill="#1D1D1B"></path><path d="M158.955 62.9888L159.151 63.8108L157.822 64.1293L158.603 67.3841L157.54 67.6396L156.759 64.3848L155.426 64.7032L155.229 63.8812L158.955 62.9888Z" fill="#1D1D1B"></path><path d="M162.44 65.4249C162.629 65.3805 162.788 65.3879 162.914 65.4546C163.04 65.5212 163.125 65.636 163.162 65.7989C163.199 65.9619 163.177 66.0989 163.095 66.2136C163.014 66.3284 162.877 66.4099 162.688 66.4543C162.499 66.4988 162.351 66.4877 162.221 66.421C162.092 66.3544 162.01 66.2433 161.969 66.084C161.929 65.9248 161.955 65.7804 162.04 65.6619C162.125 65.5471 162.258 65.4657 162.44 65.4212V65.4249ZM162.247 62.1997L162.562 63.5142L162.788 64.9769L161.929 65.1842L161.47 63.7808L161.155 62.4663L162.247 62.2034V62.1997Z" fill="#1D1D1B"></path><path d="M166.461 60.826C166.839 60.7334 167.187 60.7149 167.506 60.763C167.824 60.8112 168.117 60.9223 168.387 61.0963L168.039 61.9035C167.817 61.7591 167.595 61.6665 167.369 61.6221C167.143 61.5777 166.898 61.5888 166.639 61.648C166.487 61.6851 166.369 61.7295 166.28 61.785C166.195 61.8406 166.136 61.9035 166.11 61.9702C166.084 62.0368 166.076 62.1072 166.095 62.1813C166.117 62.2664 166.173 62.3331 166.269 62.3701C166.365 62.4108 166.506 62.4293 166.698 62.4256L167.42 62.4145C167.85 62.4145 168.183 62.4775 168.417 62.6145C168.65 62.7515 168.802 62.97 168.876 63.2699C168.95 63.5698 168.928 63.8216 168.828 64.0549C168.728 64.2882 168.561 64.4882 168.324 64.6511C168.087 64.814 167.806 64.9362 167.472 65.014C167.202 65.0806 166.935 65.1102 166.672 65.1102C166.41 65.1102 166.169 65.0769 165.943 65.014C165.717 64.951 165.521 64.8621 165.351 64.7511L165.691 63.9179C165.825 64.0142 165.976 64.0882 166.147 64.1438C166.321 64.1993 166.502 64.2327 166.695 64.2438C166.887 64.2549 167.076 64.2364 167.261 64.1919C167.406 64.1586 167.524 64.1142 167.613 64.0623C167.702 64.0105 167.765 63.9512 167.794 63.8809C167.824 63.8142 167.832 63.7402 167.813 63.6624C167.791 63.5772 167.743 63.5106 167.669 63.4662C167.591 63.4217 167.461 63.3995 167.28 63.3995L166.487 63.4143C166.243 63.4143 166.021 63.3958 165.821 63.3477C165.621 63.3032 165.451 63.2181 165.314 63.0922C165.173 62.9663 165.077 62.7922 165.025 62.5626C164.962 62.3071 164.98 62.0628 165.073 61.8295C165.165 61.5962 165.328 61.3888 165.565 61.2111C165.802 61.0334 166.102 60.9 166.469 60.8112L166.461 60.826Z" fill="#1D1D1B"></path><path d="M172.431 59.459L173.008 61.8733C173.145 62.4509 173.097 62.9175 172.856 63.2767C172.619 63.6359 172.197 63.8877 171.597 64.0321C170.998 64.1765 170.512 64.1394 170.135 63.9284C169.757 63.7173 169.498 63.3211 169.361 62.7472L168.783 60.3329L169.853 60.0774L170.438 62.5102C170.509 62.8027 170.624 63.0064 170.783 63.1211C170.942 63.2359 171.149 63.2619 171.401 63.2026C171.653 63.1434 171.831 63.0249 171.92 62.8508C172.012 62.6768 172.02 62.4435 171.949 62.151L171.364 59.7182L172.427 59.4627L172.431 59.459Z" fill="#1D1D1B"></path><path d="M176.618 59.3222L174.511 59.8258L174.718 60.6923L176.399 60.2887L176.596 61.1107L174.915 61.5144L175.292 63.0844L174.23 63.3399L173.252 59.263L176.422 58.5039L176.618 59.3259V59.3222Z" fill="#1D1D1B"></path><path d="M180.399 58.4194L178.292 58.923L178.499 59.7895L180.18 59.3859L180.376 60.2079L178.695 60.6115L179.073 62.1816L178.01 62.4371L177.033 58.3602L180.202 57.6011L180.399 58.4231V58.4194Z" fill="#1D1D1B"></path><path d="M181.876 57.1934L182.854 61.2702L181.791 61.5257L180.813 57.4489L181.876 57.1934Z" fill="#1D1D1B"></path><path d="M186.205 56.1572L186.401 56.9793L185.072 57.2977L185.853 60.5526L184.79 60.8081L184.009 57.5532L182.676 57.8717L182.479 57.0496L186.205 56.1572Z" fill="#1D1D1B"></path><path d="M189.689 58.5934C189.878 58.549 190.037 58.5564 190.163 58.623C190.289 58.6897 190.374 58.8045 190.411 58.9674C190.448 59.1303 190.426 59.2673 190.344 59.3821C190.263 59.4969 190.126 59.5784 189.937 59.6228C189.748 59.6672 189.6 59.6561 189.47 59.5895C189.341 59.5228 189.259 59.4117 189.218 59.2525C189.178 59.0933 189.204 58.9489 189.289 58.8304C189.374 58.7156 189.507 58.6341 189.689 58.5897V58.5934ZM189.496 55.3682L189.811 56.6827L190.037 58.1453L189.178 58.3527L188.719 56.9493L188.404 55.6348L189.496 55.3719V55.3682Z" fill="#1D1D1B"></path><path d="M140.58 78.6593C140.969 78.6519 141.313 78.7075 141.617 78.8223C141.917 78.9371 142.18 79.1111 142.405 79.3407L141.891 80.0553C141.706 79.8665 141.506 79.7295 141.295 79.6369C141.084 79.5443 140.843 79.4999 140.576 79.5073C140.421 79.5073 140.291 79.5295 140.195 79.5629C140.099 79.5999 140.028 79.6443 139.987 79.7073C139.947 79.7665 139.925 79.8369 139.928 79.9109C139.928 79.9998 139.973 80.0739 140.054 80.1331C140.139 80.1923 140.273 80.2442 140.461 80.2812L141.169 80.4293C141.591 80.5182 141.898 80.6552 142.098 80.8404C142.294 81.0218 142.398 81.2699 142.402 81.5772C142.405 81.8846 142.335 82.1253 142.187 82.3326C142.039 82.54 141.832 82.6992 141.565 82.8066C141.298 82.914 140.995 82.9732 140.654 82.9769C140.376 82.9806 140.106 82.9547 139.85 82.8992C139.595 82.8436 139.365 82.7585 139.162 82.6474C138.958 82.5363 138.784 82.4067 138.64 82.2623L139.154 81.5217C139.262 81.6439 139.395 81.7513 139.551 81.8438C139.706 81.9364 139.876 82.0105 140.062 82.0623C140.247 82.1141 140.436 82.1401 140.624 82.1364C140.773 82.1364 140.895 82.1179 140.995 82.0845C141.095 82.0549 141.165 82.0068 141.213 81.9475C141.258 81.8883 141.28 81.8179 141.28 81.7365C141.28 81.6476 141.246 81.5735 141.18 81.5143C141.117 81.455 140.995 81.4032 140.817 81.3662L140.039 81.2069C139.802 81.1551 139.591 81.0847 139.402 80.9996C139.217 80.9107 139.069 80.7922 138.962 80.6404C138.854 80.4886 138.799 80.296 138.791 80.0627C138.788 79.7998 138.854 79.5666 138.995 79.3555C139.136 79.1481 139.339 78.9815 139.61 78.8593C139.88 78.7371 140.202 78.6705 140.58 78.663V78.6593Z" fill="#1D1D1B"></path><path d="M146.706 78.6184L146.747 81.1031C146.758 81.6956 146.606 82.1436 146.295 82.4398C145.984 82.7398 145.521 82.8953 144.903 82.9064C144.284 82.9175 143.821 82.7768 143.499 82.488C143.177 82.1991 143.01 81.7585 142.999 81.166L142.958 78.6814L144.058 78.6629L144.099 81.166C144.103 81.466 144.173 81.6919 144.303 81.8363C144.436 81.9807 144.628 82.0547 144.888 82.0473C145.147 82.0399 145.343 81.9659 145.473 81.814C145.599 81.6622 145.662 81.4364 145.654 81.1364L145.613 78.6333L146.706 78.6147V78.6184Z" fill="#1D1D1B"></path><path d="M150.82 79.3926L148.654 79.4296L148.669 80.3183L150.398 80.2887L150.413 81.133L148.684 81.1626L148.71 82.777L147.617 82.7956L147.547 78.6039L150.805 78.5483L150.82 79.3926Z" fill="#1D1D1B"></path><path d="M154.707 79.3257L152.541 79.3627L152.556 80.2514L154.285 80.2218L154.3 81.0661L152.571 81.0957L152.597 82.7102L151.504 82.7287L151.434 78.537L154.693 78.4814L154.707 79.3257Z" fill="#1D1D1B"></path><path d="M156.414 78.4517L156.484 82.6433L155.392 82.6619L155.321 78.4702L156.414 78.4517Z" fill="#1D1D1B"></path><path d="M160.865 78.3777L160.88 79.222L159.513 79.2442L159.569 82.5916L158.477 82.6101L158.421 79.2627L157.051 79.2849L157.036 78.4407L160.865 78.374V78.3777Z" fill="#1D1D1B"></path><path d="M163.737 81.5112C163.934 81.5112 164.086 81.552 164.193 81.6445C164.304 81.7371 164.36 81.8667 164.363 82.037C164.367 82.2074 164.315 82.3333 164.208 82.4258C164.1 82.5221 163.952 82.5703 163.756 82.574C163.56 82.5777 163.419 82.5332 163.308 82.4407C163.197 82.3481 163.138 82.2222 163.138 82.0556C163.138 81.8889 163.186 81.7556 163.297 81.6593C163.404 81.5631 163.552 81.5149 163.737 81.5112ZM164.248 78.3193L164.271 79.6709L164.174 81.1446L163.293 81.1595L163.149 79.6894L163.126 78.3379L164.252 78.3193H164.248Z" fill="#1D1D1B"></path><path d="M168.33 77.8854C168.719 77.878 169.064 77.9336 169.367 78.0483C169.667 78.1631 169.93 78.3372 170.156 78.5668L169.641 79.2814C169.456 79.0926 169.256 78.9556 169.045 78.863C168.834 78.7704 168.593 78.726 168.327 78.7334C168.171 78.7334 168.042 78.7556 167.945 78.7889C167.849 78.826 167.779 78.8704 167.738 78.9333C167.697 78.9926 167.675 79.0629 167.679 79.137C167.679 79.2259 167.723 79.2999 167.805 79.3592C167.89 79.4184 168.023 79.4703 168.212 79.5073L168.919 79.6554C169.341 79.7443 169.649 79.8813 169.849 80.0664C170.045 80.2479 170.149 80.496 170.152 80.8033C170.156 81.1106 170.086 81.3513 169.938 81.5587C169.789 81.7661 169.582 81.9253 169.315 82.0327C169.049 82.14 168.745 82.1993 168.405 82.203C168.127 82.2067 167.856 82.1808 167.601 82.1252C167.345 82.0697 167.116 81.9845 166.912 81.8734C166.709 81.7623 166.535 81.6328 166.39 81.4883L166.905 80.7478C167.012 80.87 167.146 80.9773 167.301 81.0699C167.457 81.1625 167.627 81.2365 167.812 81.2884C167.997 81.3402 168.186 81.3661 168.375 81.3624C168.523 81.3624 168.645 81.3439 168.745 81.3106C168.845 81.281 168.916 81.2328 168.964 81.1736C169.008 81.1143 169.03 81.044 169.03 80.9625C169.03 80.8737 168.997 80.7996 168.93 80.7404C168.867 80.6811 168.745 80.6293 168.567 80.5922L167.79 80.433C167.553 80.3812 167.342 80.3108 167.153 80.2256C166.968 80.1368 166.82 80.0183 166.712 79.8665C166.605 79.7146 166.549 79.5221 166.542 79.2888C166.538 79.0259 166.605 78.7926 166.746 78.5816C166.886 78.3742 167.09 78.2076 167.36 78.0854C167.631 77.9632 167.953 77.8965 168.33 77.8891V77.8854Z" fill="#1D1D1B"></path><path d="M174.455 77.845L174.496 80.3297C174.507 80.9221 174.355 81.3702 174.044 81.6664C173.733 81.9663 173.27 82.1219 172.652 82.133C172.034 82.1441 171.571 82.0034 171.249 81.7145C170.926 81.4257 170.76 80.9851 170.749 80.3926L170.708 77.908L171.808 77.8894L171.848 80.3926C171.852 80.6925 171.923 80.9184 172.052 81.0628C172.185 81.2072 172.378 81.2813 172.637 81.2739C172.896 81.2665 173.093 81.1924 173.222 81.0406C173.348 80.8888 173.411 80.6629 173.404 80.363L173.363 77.8598L174.455 77.8413V77.845Z" fill="#1D1D1B"></path><path d="M178.573 78.6187L176.407 78.6557L176.422 79.5444L178.151 79.5148L178.166 80.359L176.437 80.3887L176.463 82.0031L175.37 82.0216L175.3 77.83L178.558 77.7744L178.573 78.6187Z" fill="#1D1D1B"></path><path d="M182.461 78.5518L180.295 78.5888L180.31 79.4775L182.039 79.4479L182.054 80.2921L180.325 80.3218L180.351 81.9362L179.258 81.9547L179.188 77.7631L182.447 77.7075L182.461 78.5518Z" fill="#1D1D1B"></path><path d="M184.169 77.6777L184.239 81.8694L183.147 81.8879L183.076 77.6962L184.169 77.6777Z" fill="#1D1D1B"></path><path d="M188.619 77.6004L188.634 78.4446L187.267 78.4669L187.323 81.8143L186.23 81.8328L186.175 78.4854L184.805 78.5076L184.79 77.6633L188.619 77.5967V77.6004Z" fill="#1D1D1B"></path><path d="M191.493 80.7368C191.69 80.7368 191.841 80.7776 191.949 80.8701C192.06 80.9627 192.115 81.0923 192.119 81.2626C192.123 81.433 192.071 81.5589 191.964 81.6514C191.856 81.7477 191.708 81.7959 191.512 81.7996C191.316 81.8033 191.175 81.7588 191.064 81.6662C190.953 81.5737 190.893 81.4478 190.893 81.2811C190.893 81.1145 190.942 80.9812 191.053 80.8849C191.16 80.7887 191.308 80.7405 191.493 80.7368ZM192.004 77.5449L192.027 78.8965L191.93 80.3702L191.049 80.385L190.905 78.915L190.882 77.5634L192.008 77.5449H192.004Z" fill="#1D1D1B"></path><path d="M139.576 100.447C139.931 100.603 140.224 100.795 140.45 101.025C140.676 101.255 140.842 101.521 140.95 101.821L140.183 102.254C140.094 102.006 139.972 101.799 139.817 101.625C139.661 101.455 139.465 101.314 139.221 101.206C139.076 101.143 138.954 101.11 138.85 101.099C138.747 101.092 138.665 101.106 138.602 101.143C138.539 101.181 138.495 101.236 138.461 101.303C138.424 101.384 138.432 101.469 138.484 101.558C138.535 101.647 138.635 101.751 138.791 101.862L139.372 102.291C139.717 102.547 139.943 102.802 140.046 103.05C140.15 103.299 140.139 103.565 140.017 103.85C139.894 104.135 139.728 104.321 139.506 104.446C139.283 104.572 139.028 104.632 138.743 104.621C138.458 104.609 138.158 104.535 137.843 104.398C137.588 104.287 137.354 104.15 137.147 103.995C136.94 103.835 136.766 103.665 136.625 103.48C136.484 103.295 136.38 103.106 136.31 102.913L137.088 102.454C137.136 102.61 137.21 102.762 137.314 102.91C137.417 103.058 137.543 103.195 137.688 103.321C137.836 103.447 137.995 103.547 138.169 103.621C138.306 103.68 138.424 103.717 138.528 103.728C138.632 103.739 138.717 103.728 138.784 103.695C138.85 103.658 138.898 103.606 138.932 103.532C138.969 103.45 138.969 103.369 138.932 103.287C138.898 103.206 138.81 103.11 138.661 102.999L138.021 102.532C137.825 102.388 137.662 102.236 137.528 102.077C137.395 101.921 137.314 101.747 137.277 101.566C137.243 101.38 137.269 101.184 137.365 100.969C137.469 100.729 137.632 100.544 137.843 100.414C138.058 100.284 138.313 100.218 138.61 100.218C138.906 100.218 139.224 100.292 139.572 100.444L139.576 100.447Z" fill="#1D1D1B"></path><path d="M145.161 102.963L144.165 105.236C143.928 105.78 143.606 106.121 143.199 106.266C142.791 106.41 142.306 106.358 141.74 106.11C141.177 105.866 140.81 105.543 140.636 105.147C140.462 104.751 140.495 104.281 140.732 103.736L141.729 101.463L142.736 101.904L141.732 104.196C141.61 104.47 141.58 104.703 141.64 104.892C141.699 105.081 141.847 105.225 142.084 105.329C142.321 105.432 142.532 105.443 142.71 105.362C142.888 105.277 143.036 105.099 143.158 104.821L144.161 102.529L145.161 102.966V102.963Z" fill="#1D1D1B"></path><path d="M148.581 105.381L146.597 104.514L146.241 105.329L147.822 106.021L147.485 106.795L145.904 106.103L145.256 107.58L144.256 107.143L145.937 103.303L148.922 104.61L148.585 105.384L148.581 105.381Z" fill="#1D1D1B"></path><path d="M152.144 106.936L150.159 106.069L149.804 106.884L151.385 107.576L151.048 108.35L149.467 107.658L148.819 109.135L147.819 108.698L149.5 104.858L152.484 106.166L152.148 106.939L152.144 106.936Z" fill="#1D1D1B"></path><path d="M154.059 106.854L152.378 110.694L151.378 110.257L153.059 106.417L154.059 106.854Z" fill="#1D1D1B"></path><path d="M158.14 108.638L157.803 109.412L156.551 108.864L155.211 111.93L154.211 111.493L155.551 108.427L154.296 107.879L154.633 107.105L158.143 108.642L158.14 108.638Z" fill="#1D1D1B"></path><path d="M159.446 112.683C159.624 112.76 159.746 112.864 159.806 112.994C159.869 113.123 159.865 113.264 159.795 113.419C159.724 113.575 159.628 113.668 159.491 113.708C159.354 113.749 159.198 113.734 159.021 113.653C158.843 113.571 158.732 113.475 158.669 113.345C158.606 113.216 158.606 113.075 158.673 112.923C158.739 112.771 158.843 112.671 158.98 112.627C159.117 112.586 159.272 112.601 159.443 112.679L159.446 112.683ZM161.239 109.994L160.698 111.235L159.998 112.538L159.191 112.183L159.672 110.783L160.213 109.542L161.242 109.994H161.239Z" fill="#1D1D1B"></path><path d="M167.242 112.363C167.597 112.519 167.89 112.711 168.115 112.941C168.341 113.171 168.508 113.437 168.615 113.737L167.849 114.17C167.76 113.922 167.638 113.715 167.482 113.541C167.327 113.371 167.13 113.23 166.886 113.122C166.742 113.06 166.619 113.026 166.516 113.015C166.412 113.008 166.331 113.022 166.268 113.06C166.205 113.097 166.16 113.152 166.127 113.219C166.09 113.3 166.097 113.385 166.149 113.474C166.201 113.563 166.301 113.667 166.457 113.778L167.038 114.207C167.382 114.463 167.608 114.718 167.712 114.967C167.816 115.215 167.804 115.481 167.682 115.766C167.56 116.051 167.393 116.237 167.171 116.363C166.949 116.488 166.694 116.548 166.408 116.537C166.123 116.525 165.823 116.451 165.509 116.314C165.253 116.203 165.02 116.066 164.812 115.911C164.605 115.752 164.431 115.581 164.29 115.396C164.15 115.211 164.046 115.022 163.976 114.829L164.753 114.37C164.801 114.526 164.875 114.678 164.979 114.826C165.083 114.974 165.209 115.111 165.353 115.237C165.501 115.363 165.66 115.463 165.834 115.537C165.971 115.596 166.09 115.633 166.194 115.644C166.297 115.655 166.382 115.644 166.449 115.611C166.516 115.574 166.564 115.522 166.597 115.448C166.634 115.366 166.634 115.285 166.597 115.203C166.564 115.122 166.475 115.026 166.327 114.915L165.686 114.448C165.49 114.304 165.327 114.152 165.194 113.993C165.061 113.837 164.979 113.663 164.942 113.482C164.909 113.297 164.935 113.1 165.031 112.885C165.135 112.645 165.298 112.46 165.509 112.33C165.723 112.2 165.979 112.134 166.275 112.134C166.571 112.134 166.89 112.208 167.238 112.36L167.242 112.363Z" fill="#1D1D1B"></path><path d="M172.826 114.875L171.83 117.148C171.593 117.693 171.271 118.033 170.864 118.178C170.456 118.322 169.971 118.27 169.405 118.022C168.842 117.778 168.475 117.456 168.301 117.059C168.127 116.663 168.161 116.193 168.398 115.649L169.394 113.375L170.401 113.816L169.397 116.108C169.275 116.382 169.245 116.615 169.305 116.804C169.364 116.993 169.512 117.137 169.749 117.241C169.986 117.345 170.197 117.356 170.375 117.274C170.553 117.189 170.701 117.011 170.823 116.734L171.826 114.441L172.826 114.878V114.875Z" fill="#1D1D1B"></path><path d="M176.242 117.292L174.258 116.426L173.902 117.24L175.483 117.933L175.146 118.707L173.565 118.014L172.917 119.492L171.917 119.055L173.599 115.215L176.583 116.522L176.246 117.296L176.242 117.292Z" fill="#1D1D1B"></path><path d="M179.805 118.851L177.82 117.985L177.465 118.799L179.046 119.492L178.709 120.266L177.128 119.573L176.48 121.051L175.48 120.614L177.161 116.774L180.146 118.081L179.809 118.855L179.805 118.851Z" fill="#1D1D1B"></path><path d="M181.722 118.766L180.041 122.606L179.042 122.169L180.723 118.329L181.722 118.766Z" fill="#1D1D1B"></path><path d="M185.801 120.552L185.464 121.325L184.212 120.777L182.872 123.843L181.872 123.406L183.213 120.34L181.957 119.792L182.294 119.019L185.805 120.555L185.801 120.552Z" fill="#1D1D1B"></path><path d="M187.111 124.598C187.288 124.676 187.41 124.78 187.47 124.909C187.533 125.039 187.529 125.179 187.459 125.335C187.388 125.49 187.292 125.583 187.155 125.624C187.018 125.664 186.862 125.65 186.685 125.568C186.507 125.487 186.396 125.39 186.333 125.261C186.27 125.131 186.27 124.991 186.337 124.839C186.403 124.687 186.507 124.587 186.644 124.543C186.781 124.502 186.936 124.517 187.107 124.594L187.111 124.598ZM188.903 121.91L188.362 123.15L187.662 124.454L186.855 124.098L187.336 122.698L187.877 121.458L188.906 121.91H188.903Z" fill="#1D1D1B"></path><path d="M135.992 113.322C136.325 113.526 136.584 113.756 136.777 114.015C136.969 114.274 137.095 114.559 137.162 114.874L136.344 115.2C136.288 114.941 136.195 114.718 136.066 114.526C135.936 114.333 135.758 114.17 135.533 114.03C135.399 113.948 135.281 113.896 135.181 113.874C135.081 113.852 134.996 113.856 134.929 113.885C134.862 113.915 134.807 113.959 134.77 114.026C134.722 114.1 134.718 114.189 134.759 114.281C134.796 114.378 134.885 114.493 135.022 114.626L135.54 115.129C135.847 115.433 136.032 115.714 136.103 115.974C136.173 116.233 136.125 116.496 135.962 116.759C135.799 117.022 135.61 117.185 135.373 117.281C135.136 117.377 134.877 117.399 134.596 117.347C134.314 117.296 134.026 117.181 133.733 117.003C133.496 116.859 133.285 116.692 133.1 116.507C132.915 116.322 132.767 116.129 132.652 115.926C132.537 115.722 132.459 115.522 132.418 115.322L133.248 114.974C133.274 115.133 133.329 115.296 133.411 115.455C133.492 115.618 133.6 115.77 133.726 115.914C133.855 116.059 134 116.177 134.163 116.277C134.288 116.355 134.403 116.407 134.503 116.433C134.603 116.459 134.688 116.459 134.759 116.433C134.829 116.407 134.885 116.359 134.929 116.292C134.977 116.218 134.988 116.137 134.966 116.051C134.944 115.966 134.87 115.859 134.74 115.729L134.17 115.178C133.996 115.007 133.855 114.833 133.744 114.659C133.633 114.485 133.574 114.304 133.566 114.119C133.555 113.93 133.614 113.737 133.733 113.541C133.87 113.319 134.055 113.156 134.285 113.056C134.514 112.956 134.777 112.926 135.07 112.967C135.362 113.008 135.67 113.126 135.992 113.322Z" fill="#1D1D1B"></path><path d="M141.18 116.577L139.884 118.695C139.573 119.202 139.206 119.495 138.784 119.584C138.362 119.669 137.888 119.55 137.358 119.228C136.836 118.906 136.514 118.54 136.399 118.121C136.281 117.703 136.377 117.244 136.688 116.736L137.984 114.618L138.921 115.192L137.614 117.325C137.458 117.58 137.395 117.806 137.429 117.999C137.462 118.191 137.588 118.358 137.806 118.491C138.025 118.625 138.236 118.669 138.425 118.61C138.613 118.551 138.784 118.395 138.943 118.136L140.25 116.003L141.183 116.573L141.18 116.577Z" fill="#1D1D1B"></path><path d="M144.237 119.443L142.39 118.31L141.923 119.069L143.397 119.972L142.956 120.694L141.482 119.791L140.638 121.165L139.705 120.594L141.897 117.021L144.674 118.724L144.234 119.443H144.237Z" fill="#1D1D1B"></path><path d="M147.552 121.472L145.705 120.339L145.238 121.098L146.712 122.002L146.271 122.724L144.797 121.82L143.953 123.194L143.02 122.624L145.212 119.05L147.989 120.754L147.549 121.472H147.552Z" fill="#1D1D1B"></path><path d="M149.459 121.654L147.267 125.227L146.334 124.657L148.526 121.083L149.459 121.654Z" fill="#1D1D1B"></path><path d="M153.259 123.979L152.818 124.698L151.656 123.983L149.908 126.838L148.975 126.268L150.722 123.413L149.552 122.694L149.993 121.976L153.259 123.979Z" fill="#1D1D1B"></path><path d="M153.998 128.167C154.165 128.267 154.268 128.39 154.313 128.523C154.357 128.66 154.335 128.801 154.246 128.945C154.157 129.089 154.046 129.167 153.905 129.189C153.765 129.212 153.613 129.175 153.446 129.071C153.28 128.967 153.187 128.856 153.139 128.719C153.094 128.582 153.113 128.445 153.202 128.301C153.291 128.156 153.406 128.075 153.55 128.053C153.691 128.03 153.842 128.067 154.002 128.167H153.998ZM156.142 125.749L155.435 126.905L154.561 128.097L153.809 127.634L154.476 126.316L155.183 125.161L156.142 125.749Z" fill="#1D1D1B"></path><path d="M161.761 128.916C162.094 129.119 162.353 129.349 162.546 129.608C162.738 129.867 162.864 130.152 162.931 130.467L162.113 130.793C162.057 130.534 161.964 130.312 161.835 130.119C161.705 129.927 161.528 129.764 161.302 129.623C161.168 129.541 161.05 129.49 160.95 129.467C160.85 129.445 160.765 129.449 160.698 129.478C160.631 129.508 160.576 129.553 160.539 129.619C160.491 129.693 160.487 129.782 160.528 129.875C160.565 129.971 160.654 130.086 160.791 130.219L161.309 130.723C161.616 131.026 161.802 131.308 161.872 131.567C161.942 131.826 161.894 132.089 161.731 132.352C161.576 132.604 161.379 132.778 161.142 132.874C160.905 132.97 160.646 132.993 160.365 132.941C160.083 132.889 159.795 132.774 159.502 132.596C159.265 132.452 159.054 132.285 158.869 132.1C158.684 131.915 158.536 131.722 158.421 131.519C158.306 131.315 158.228 131.115 158.188 130.915L159.017 130.567C159.043 130.726 159.098 130.889 159.18 131.049C159.261 131.211 159.369 131.363 159.495 131.508C159.624 131.652 159.769 131.771 159.932 131.871C160.057 131.948 160.172 132 160.272 132.026C160.372 132.052 160.457 132.052 160.528 132.026C160.598 132 160.654 131.952 160.698 131.885C160.746 131.811 160.757 131.73 160.735 131.645C160.713 131.56 160.639 131.452 160.509 131.323L159.939 130.771C159.765 130.6 159.624 130.426 159.513 130.252C159.402 130.078 159.343 129.897 159.335 129.712C159.324 129.523 159.384 129.33 159.502 129.134C159.639 128.912 159.824 128.749 160.054 128.649C160.283 128.549 160.546 128.519 160.839 128.56C161.131 128.601 161.439 128.719 161.761 128.916Z" fill="#1D1D1B"></path><path d="M166.948 132.17L165.652 134.288C165.341 134.795 164.974 135.088 164.552 135.177C164.13 135.262 163.656 135.143 163.126 134.821C162.597 134.499 162.282 134.132 162.167 133.714C162.049 133.295 162.145 132.836 162.456 132.329L163.752 130.211L164.689 130.785L163.382 132.918C163.226 133.173 163.163 133.399 163.197 133.592C163.23 133.784 163.356 133.951 163.574 134.084C163.796 134.221 164.004 134.262 164.193 134.203C164.382 134.143 164.552 133.988 164.711 133.729L166.018 131.596L166.951 132.166L166.948 132.17Z" fill="#1D1D1B"></path><path d="M170.007 135.036L168.16 133.903L167.693 134.662L169.167 135.565L168.726 136.288L167.252 135.384L166.408 136.758L165.475 136.188L167.667 132.614L170.444 134.318L170.004 135.036H170.007Z" fill="#1D1D1B"></path><path d="M173.321 137.066L171.474 135.933L171.007 136.692L172.481 137.595L172.04 138.317L170.566 137.414L169.722 138.788L168.789 138.217L170.981 134.644L173.758 136.347L173.318 137.066H173.321Z" fill="#1D1D1B"></path><path d="M175.227 137.247L173.035 140.82L172.102 140.25L174.294 136.677L175.227 137.247Z" fill="#1D1D1B"></path><path d="M179.024 139.573L178.584 140.291L177.421 139.576L175.673 142.431L174.74 141.861L176.488 139.006L175.318 138.288L175.759 137.569L179.024 139.573Z" fill="#1D1D1B"></path><path d="M179.768 143.76C179.935 143.86 180.038 143.982 180.083 144.116C180.127 144.253 180.105 144.393 180.016 144.538C179.927 144.682 179.816 144.76 179.675 144.782C179.535 144.804 179.383 144.767 179.216 144.664C179.05 144.56 178.957 144.449 178.909 144.312C178.865 144.175 178.883 144.038 178.972 143.893C179.061 143.749 179.176 143.668 179.32 143.645C179.461 143.623 179.612 143.66 179.772 143.76H179.768ZM181.912 141.342L181.205 142.497L180.331 143.69L179.579 143.227L180.246 141.909L180.953 140.753L181.912 141.342Z" fill="#1D1D1B"></path></g><path d="M209.839 30.6827C209.839 27.8626 210.449 25.3544 211.67 23.1579C212.89 20.9344 214.585 19.2125 216.754 17.9923C218.95 16.745 221.431 16.1213 224.197 16.1213C227.587 16.1213 230.488 17.0161 232.902 18.8058C235.315 20.5955 236.928 23.0359 237.742 26.1272H230.095C229.526 24.9341 228.712 24.0257 227.655 23.402C226.624 22.7783 225.445 22.4665 224.116 22.4665C221.974 22.4665 220.238 23.2122 218.91 24.7036C217.581 26.195 216.917 28.188 216.917 30.6827C216.917 33.1774 217.581 35.1704 218.91 36.6618C220.238 38.1532 221.974 38.8989 224.116 38.8989C225.445 38.8989 226.624 38.587 227.655 37.9634C228.712 37.3397 229.526 36.4313 230.095 35.2382H237.742C236.928 38.3294 235.315 40.7699 232.902 42.5595C230.488 44.3221 227.587 45.2034 224.197 45.2034C221.431 45.2034 218.95 44.5933 216.754 43.373C214.585 42.1257 212.89 40.4038 211.67 38.2074C210.449 36.011 209.839 33.5028 209.839 30.6827ZM255.505 45.2847C252.821 45.2847 250.353 44.661 248.102 43.4137C245.879 42.1664 244.103 40.4309 242.774 38.2074C241.472 35.9568 240.822 33.435 240.822 30.642C240.822 27.849 241.472 25.3408 242.774 23.1173C244.103 20.8937 245.879 19.1583 248.102 17.911C250.353 16.6636 252.821 16.04 255.505 16.04C258.19 16.04 260.644 16.6636 262.867 17.911C265.118 19.1583 266.88 20.8937 268.155 23.1173C269.456 25.3408 270.107 27.849 270.107 30.642C270.107 33.435 269.456 35.9568 268.155 38.2074C266.853 40.4309 265.091 42.1664 262.867 43.4137C260.644 44.661 258.19 45.2847 255.505 45.2847ZM255.505 38.9395C257.783 38.9395 259.6 38.1803 260.955 36.6618C262.338 35.1433 263.03 33.1367 263.03 30.642C263.03 28.1202 262.338 26.1136 260.955 24.6222C259.6 23.1037 257.783 22.3445 255.505 22.3445C253.2 22.3445 251.356 23.0902 249.973 24.5815C248.618 26.0729 247.94 28.0931 247.94 30.642C247.94 33.1638 248.618 35.184 249.973 36.7025C251.356 38.1938 253.2 38.9395 255.505 38.9395ZM299.52 45H292.565L280.932 27.3881V45H273.977V16.4467H280.932L292.565 34.14V16.4467H299.52V45ZM323.15 16.4467V22.0191H311.517V28.0389H320.221V33.4485H311.517V45H304.562V16.4467H323.15ZM333.761 22.0191V27.7948H343.075V33.1638H333.761V39.4276H344.295V45H326.805V16.4467H344.295V22.0191H333.761ZM340.106 10.7116L330.303 14.8197V10.0202L340.106 5.30196V10.7116ZM359.508 16.4467C362.518 16.4467 365.148 17.0433 367.399 18.2364C369.649 19.4295 371.385 21.1107 372.605 23.28C373.852 25.4221 374.476 27.9033 374.476 30.7234C374.476 33.5163 373.852 35.9974 372.605 38.1667C371.385 40.336 369.636 42.0172 367.358 43.2103C365.108 44.4034 362.491 45 359.508 45H348.811V16.4467H359.508ZM359.061 38.9802C361.691 38.9802 363.738 38.2616 365.202 36.8245C366.667 35.3873 367.399 33.3536 367.399 30.7234C367.399 28.0931 366.667 26.0458 365.202 24.5815C363.738 23.1173 361.691 22.3851 359.061 22.3851H355.766V38.9802H359.061ZM385.318 22.0191V27.7948H394.633V33.1638H385.318V39.4276H395.853V45H378.363V16.4467H395.853V22.0191H385.318ZM391.664 10.7116L381.861 14.8197V10.0202L391.664 5.30196V10.7116ZM414.93 45L408.991 34.2213H407.324V45H400.368V16.4467H412.042C414.293 16.4467 416.204 16.8399 417.777 17.6263C419.377 18.4126 420.57 19.4973 421.356 20.8802C422.143 22.236 422.536 23.7545 422.536 25.4357C422.536 27.3338 421.994 29.0286 420.909 30.52C419.851 32.0114 418.279 33.0689 416.191 33.6926L422.78 45H414.93ZM407.324 29.2998H411.635C412.91 29.2998 413.859 28.9879 414.482 28.3642C415.133 27.7406 415.459 26.8593 415.459 25.7204C415.459 24.6358 415.133 23.7816 414.482 23.1579C413.859 22.5343 412.91 22.2224 411.635 22.2224H407.324V29.2998ZM444.677 39.9564H434.02L432.312 45H425.031L435.362 16.4467H443.416L453.747 45H446.385L444.677 39.9564ZM442.887 34.5874L439.348 24.1341L435.85 34.5874H442.887ZM477.432 16.4467V22.0191H469.866V45H462.911V22.0191H455.346V16.4467H477.432ZM487.878 16.4467V45H480.922V16.4467H487.878ZM506.422 45.2847C503.738 45.2847 501.27 44.661 499.019 43.4137C496.796 42.1664 495.02 40.4309 493.691 38.2074C492.389 35.9568 491.739 33.435 491.739 30.642C491.739 27.849 492.389 25.3408 493.691 23.1173C495.02 20.8937 496.796 19.1583 499.019 17.911C501.27 16.6636 503.738 16.04 506.422 16.04C509.107 16.04 511.561 16.6636 513.784 17.911C516.035 19.1583 517.797 20.8937 519.072 23.1173C520.373 25.3408 521.024 27.849 521.024 30.642C521.024 33.435 520.373 35.9568 519.072 38.2074C517.77 40.4309 516.008 42.1664 513.784 43.4137C511.561 44.661 509.107 45.2847 506.422 45.2847ZM506.422 38.9395C508.7 38.9395 510.517 38.1803 511.872 36.6618C513.255 35.1433 513.947 33.1367 513.947 30.642C513.947 28.1202 513.255 26.1136 511.872 24.6222C510.517 23.1037 508.7 22.3445 506.422 22.3445C504.117 22.3445 502.273 23.0902 500.89 24.5815C499.535 26.0729 498.857 28.0931 498.857 30.642C498.857 33.1638 499.535 35.184 500.89 36.7025C502.273 38.1938 504.117 38.9395 506.422 38.9395ZM550.437 45H543.482L531.849 27.3881V45H524.894V16.4467H531.849L543.482 34.14V16.4467H550.437V45Z" fill="#1A1A1A"></path><path d="M221.35 93.5738C219.262 93.5738 217.391 93.2348 215.737 92.5569C214.083 91.879 212.754 90.8757 211.751 89.547C210.775 88.2183 210.26 86.6185 210.205 84.7475H217.608C217.717 85.805 218.083 86.6185 218.706 87.1879C219.33 87.7303 220.143 88.0014 221.147 88.0014C222.177 88.0014 222.991 87.7709 223.587 87.31C224.184 86.8219 224.482 86.1575 224.482 85.3169C224.482 84.6119 224.238 84.0289 223.75 83.5679C223.289 83.107 222.706 82.7273 222.001 82.429C221.323 82.1308 220.347 81.7918 219.072 81.4122C217.228 80.8428 215.724 80.2733 214.558 79.7039C213.392 79.1344 212.388 78.2938 211.548 77.1821C210.707 76.0703 210.287 74.6196 210.287 72.8299C210.287 70.1726 211.249 68.0982 213.175 66.6068C215.1 65.0883 217.608 64.329 220.699 64.329C223.845 64.329 226.38 65.0883 228.305 66.6068C230.231 68.0982 231.261 70.1861 231.397 72.8706H223.872C223.818 71.9487 223.479 71.2301 222.855 70.7149C222.231 70.1725 221.431 69.9014 220.455 69.9014C219.615 69.9014 218.937 70.1319 218.422 70.5929C217.906 71.0267 217.649 71.6639 217.649 72.5045C217.649 73.4265 218.083 74.1451 218.95 74.6603C219.818 75.1755 221.174 75.7314 223.018 76.3279C224.862 76.9516 226.353 77.5481 227.492 78.1176C228.658 78.687 229.661 79.5141 230.502 80.5987C231.342 81.6834 231.763 83.0798 231.763 84.7882C231.763 86.4151 231.342 87.893 230.502 89.2216C229.688 90.5503 228.495 91.6079 226.922 92.3942C225.35 93.1806 223.492 93.5738 221.35 93.5738ZM260.529 64.7358L250.645 83.8526V93.2891H243.69V83.8526L233.806 64.7358H241.697L247.228 76.694L252.719 64.7358H260.529ZM288.875 93.2891H281.919L270.287 75.6771V93.2891H263.331V64.7358H270.287L281.919 82.429V64.7358H288.875V93.2891ZM304.614 64.7358C307.624 64.7358 310.254 65.3323 312.505 66.5254C314.755 67.7185 316.491 69.3997 317.711 71.569C318.958 73.7112 319.582 76.1923 319.582 79.0124C319.582 81.8054 318.958 84.2865 317.711 86.4558C316.491 88.6251 314.742 90.3063 312.464 91.4994C310.213 92.6925 307.597 93.2891 304.614 93.2891H293.916V64.7358H304.614ZM304.166 87.2693C306.797 87.2693 308.844 86.5507 310.308 85.1135C311.772 83.6764 312.505 81.6427 312.505 79.0124C312.505 76.3821 311.772 74.3349 310.308 72.8706C308.844 71.4063 306.797 70.6742 304.166 70.6742H300.872V87.2693H304.166ZM330.424 64.7358V93.2891H323.469V64.7358H330.424ZM334.285 78.9717C334.285 76.1517 334.895 73.6434 336.115 71.447C337.336 69.2235 339.03 67.5016 341.2 66.2814C343.396 65.034 345.877 64.4104 348.643 64.4104C352.032 64.4104 354.934 65.3052 357.347 67.0949C359.761 68.8845 361.374 71.325 362.187 74.4162H354.541C353.971 73.2231 353.158 72.3147 352.1 71.6911C351.07 71.0674 349.89 70.7555 348.562 70.7555C346.419 70.7555 344.684 71.5012 343.355 72.9926C342.027 74.484 341.362 76.4771 341.362 78.9717C341.362 81.4664 342.027 83.4595 343.355 84.9508C344.684 86.4422 346.419 87.1879 348.562 87.1879C349.89 87.1879 351.07 86.8761 352.1 86.2524C353.158 85.6288 353.971 84.7204 354.541 83.5273H362.187C361.374 86.6185 359.761 89.0589 357.347 90.8486C354.934 92.6112 352.032 93.4924 348.643 93.4924C345.877 93.4924 343.396 92.8823 341.2 91.6621C339.03 90.4148 337.336 88.6929 336.115 86.4965C334.895 84.3001 334.285 81.7918 334.285 78.9717ZM384.221 88.2455H373.565L371.856 93.2891H364.576L374.907 64.7358H382.961L393.292 93.2891H385.93L384.221 88.2455ZM382.432 82.8765L378.893 72.4232L375.395 82.8765H382.432ZM403.391 87.9201H412.502V93.2891H396.436V64.7358H403.391V87.9201ZM422.775 70.3081V76.0839H432.09V81.4529H422.775V87.7167H433.31V93.2891H415.82V64.7358H433.31V70.3081H422.775ZM457.142 64.7358C460.152 64.7358 462.782 65.3323 465.033 66.5254C467.283 67.7185 469.019 69.3997 470.239 71.569C471.486 73.7112 472.11 76.1923 472.11 79.0124C472.11 81.8054 471.486 84.2865 470.239 86.4558C469.019 88.6251 467.27 90.3063 464.992 91.4994C462.742 92.6925 460.125 93.2891 457.142 93.2891H446.445V64.7358H457.142ZM456.695 87.2693C459.325 87.2693 461.372 86.5507 462.836 85.1135C464.301 83.6764 465.033 81.6427 465.033 79.0124C465.033 76.3821 464.301 74.3349 462.836 72.8706C461.372 71.4063 459.325 70.6742 456.695 70.6742H453.4V87.2693H456.695ZM482.952 70.3081V76.0839H492.267V81.4529H482.952V87.7167H493.487V93.2891H475.997V64.7358H493.487V70.3081H482.952ZM508.334 93.5738C506.246 93.5738 504.375 93.2348 502.721 92.5569C501.067 91.879 499.738 90.8757 498.735 89.547C497.758 88.2183 497.243 86.6185 497.189 84.7475H504.592C504.7 85.805 505.066 86.6185 505.69 87.1879C506.314 87.7303 507.127 88.0014 508.13 88.0014C509.161 88.0014 509.974 87.7709 510.571 87.31C511.167 86.8219 511.466 86.1575 511.466 85.3169C511.466 84.6119 511.222 84.0289 510.733 83.5679C510.273 83.107 509.69 82.7273 508.984 82.429C508.307 82.1308 507.33 81.7918 506.056 81.4122C504.212 80.8428 502.707 80.2733 501.541 79.7039C500.375 79.1344 499.372 78.2938 498.531 77.1821C497.691 76.0703 497.27 74.6196 497.27 72.8299C497.27 70.1726 498.233 68.0982 500.158 66.6068C502.083 65.0883 504.592 64.329 507.683 64.329C510.828 64.329 513.364 65.0883 515.289 66.6068C517.214 68.0982 518.245 70.1861 518.38 72.8706H510.856C510.801 71.9487 510.462 71.2301 509.839 70.7149C509.215 70.1725 508.415 69.9014 507.439 69.9014C506.598 69.9014 505.92 70.1319 505.405 70.5929C504.89 71.0267 504.632 71.6639 504.632 72.5045C504.632 73.4265 505.066 74.1451 505.934 74.6603C506.802 75.1755 508.157 75.7314 510.001 76.3279C511.845 76.9516 513.337 77.5481 514.476 78.1176C515.642 78.687 516.645 79.5141 517.485 80.5987C518.326 81.6834 518.746 83.0798 518.746 84.7882C518.746 86.4151 518.326 87.893 517.485 89.2216C516.672 90.5503 515.479 91.6079 513.906 92.3942C512.333 93.1806 510.476 93.5738 508.334 93.5738Z" fill="#1A1A1A"></path><path d="M230.118 111.81V117.034H223.025V138.579H216.505V117.034H209.412V111.81H230.118ZM247.042 138.579L241.474 128.474H239.911V138.579H233.39V111.81H244.334C246.444 111.81 248.237 112.179 249.711 112.916C251.211 113.653 252.329 114.67 253.067 115.966C253.804 117.237 254.172 118.661 254.172 120.237C254.172 122.017 253.664 123.605 252.647 125.004C251.656 126.402 250.181 127.393 248.224 127.978L254.401 138.579H247.042ZM239.911 123.86H243.953C245.148 123.86 246.038 123.567 246.622 122.983C247.232 122.398 247.537 121.572 247.537 120.504C247.537 119.487 247.232 118.686 246.622 118.102C246.038 117.517 245.148 117.225 243.953 117.225H239.911V123.86ZM274.929 133.85H264.939L263.337 138.579H256.512L266.197 111.81H273.747L283.433 138.579H276.531L274.929 133.85ZM273.252 128.817L269.934 119.017L266.655 128.817H273.252ZM311.51 111.81L302.015 138.579H293.855L284.36 111.81H291.3L297.935 132.02L304.608 111.81H311.51ZM330.899 133.85H320.908L319.306 138.579H312.481L322.166 111.81H329.717L339.402 138.579H332.5L330.899 133.85ZM329.221 128.817L325.903 119.017L322.624 128.817H329.221ZM348.87 111.81V138.579H342.35V111.81H348.87ZM360.116 133.545H368.658V138.579H353.596V111.81H360.116V133.545ZM378.289 133.545H386.83V138.579H371.768V111.81H378.289V133.545ZM396.461 117.034V122.449H405.193V127.482H396.461V133.355H406.337V138.579H389.94V111.81H406.337V117.034H396.461ZM416.977 111.81V127.825C416.977 129.427 417.371 130.66 418.159 131.524C418.947 132.389 420.104 132.821 421.629 132.821C423.154 132.821 424.324 132.389 425.137 131.524C425.95 130.66 426.357 129.427 426.357 127.825V111.81H432.878V127.787C432.878 130.177 432.369 132.198 431.353 133.85C430.336 135.503 428.963 136.748 427.234 137.587C425.531 138.426 423.624 138.846 421.514 138.846C419.404 138.846 417.511 138.439 415.833 137.625C414.18 136.786 412.871 135.541 411.905 133.888C410.939 132.211 410.456 130.177 410.456 127.787V111.81H416.977ZM451.108 138.579L445.541 128.474H443.977V138.579H437.457V111.81H448.401C450.511 111.81 452.303 112.179 453.777 112.916C455.277 113.653 456.396 114.67 457.133 115.966C457.87 117.237 458.239 118.661 458.239 120.237C458.239 122.017 457.73 123.605 456.713 125.004C455.722 126.402 454.247 127.393 452.29 127.978L458.467 138.579H451.108ZM443.977 123.86H448.019C449.214 123.86 450.104 123.567 450.688 122.983C451.299 122.398 451.604 121.572 451.604 120.504C451.604 119.487 451.299 118.686 450.688 118.102C450.104 117.517 449.214 117.225 448.019 117.225H443.977V123.86ZM472.017 138.846C470.06 138.846 468.306 138.528 466.755 137.892C465.204 137.257 463.959 136.316 463.018 135.07C462.103 133.825 461.62 132.325 461.569 130.571H468.509C468.611 131.562 468.954 132.325 469.539 132.859C470.124 133.367 470.886 133.621 471.827 133.621C472.793 133.621 473.555 133.405 474.115 132.973C474.674 132.516 474.954 131.893 474.954 131.105C474.954 130.444 474.725 129.897 474.267 129.465C473.835 129.033 473.288 128.677 472.628 128.397C471.992 128.118 471.077 127.8 469.882 127.444C468.153 126.91 466.742 126.376 465.649 125.843C464.556 125.309 463.616 124.521 462.828 123.478C462.04 122.436 461.645 121.076 461.645 119.398C461.645 116.907 462.548 114.962 464.353 113.564C466.158 112.14 468.509 111.429 471.407 111.429C474.356 111.429 476.733 112.14 478.538 113.564C480.343 114.962 481.309 116.92 481.436 119.436H474.382C474.331 118.572 474.013 117.898 473.428 117.415C472.844 116.907 472.094 116.653 471.178 116.653C470.39 116.653 469.755 116.869 469.272 117.301C468.789 117.708 468.547 118.305 468.547 119.093C468.547 119.957 468.954 120.631 469.768 121.114C470.581 121.597 471.852 122.118 473.581 122.678C475.309 123.262 476.708 123.822 477.775 124.355C478.868 124.889 479.809 125.665 480.597 126.681C481.385 127.698 481.779 129.007 481.779 130.609C481.779 132.134 481.385 133.52 480.597 134.765C479.834 136.011 478.716 137.002 477.241 137.74C475.767 138.477 474.026 138.846 472.017 138.846ZM510.079 124.851C511.63 125.182 512.875 125.957 513.816 127.177C514.756 128.372 515.227 129.745 515.227 131.295C515.227 133.532 514.439 135.312 512.863 136.634C511.312 137.93 509.138 138.579 506.342 138.579H493.873V111.81H505.922C508.643 111.81 510.765 112.433 512.291 113.678C513.841 114.924 514.617 116.615 514.617 118.75C514.617 120.326 514.197 121.635 513.358 122.678C512.545 123.72 511.452 124.444 510.079 124.851ZM500.393 122.639H504.664C505.732 122.639 506.545 122.411 507.105 121.953C507.689 121.47 507.982 120.771 507.982 119.856C507.982 118.941 507.689 118.242 507.105 117.759C506.545 117.275 505.732 117.034 504.664 117.034H500.393V122.639ZM505.198 133.316C506.291 133.316 507.13 133.075 507.715 132.592C508.325 132.083 508.63 131.359 508.63 130.418C508.63 129.478 508.312 128.741 507.677 128.207C507.066 127.673 506.215 127.406 505.122 127.406H500.393V133.316H505.198ZM525.529 117.034V122.449H534.261V127.482H525.529V133.355H535.405V138.579H519.009V111.81H535.405V117.034H525.529ZM531.478 106.433L522.288 110.285V105.785L531.478 101.362V106.433ZM563.586 138.579H557.065L546.159 122.067V138.579H539.639V111.81H546.159L557.065 128.397V111.81H563.586V138.579ZM574.833 111.81V138.579H568.312V111.81H574.833ZM603.505 138.579H596.985L586.079 122.067V138.579H579.558V111.81H586.079L596.985 128.397V111.81H603.505V138.579Z" fill="#1A1A1A"></path><defs><clipPath id="clip0_884_7689"><rect width="200.497" height="136" fill="white" transform="translate(0 8.78955)"></rect></clipPath></defs></svg>